<?xml version="1.0" encoding="UTF-8"?>
<svg xmlns:rdf="http://www.w3.org/1999/02/22-rdf-syntax-ns#" xmlns="http://www.w3.org/2000/svg" xmlns:cc="http://creativecommons.org/ns#" xmlns:dc="http://purl.org/dc/elements/1.1/" xmlns:svg="http://www.w3.org/2000/svg" xmlns:inkscape="http://www.inkscape.org/namespaces/inkscape" xmlns:sodipodi="http://sodipodi.sourceforge.net/DTD/sodipodi-0.dtd" xmlns:ns1="http://sozi.baierouge.fr" xmlns:xlink="http://www.w3.org/1999/xlink" id="svg2" viewBox="0 0 3000 3000" version="1.1">
  <rect id="rect5" height="3e3" width="3e3" y="0" x="0" fill="#ff54dc"/>
  <g id="g3089" transform="translate(0,-4.4063)">
    <path id="path7" fill="#fff" d="m1520.9 2457.6c-502.69 0-910.31 244.27-915.91 546.77h1832.2c-5.5781-302.51-413.58-546.77-916.24-546.77z"/>
    <path id="path9" d="m1435.5 433.59c-191.91 3.1172-378.8 60.586-526.97 163.34-211.9 146.93-352.12 372.73-411.26 663.21-2.7188 13.359-6.1875 31.734-8.0625 40.641-1.875 8.9062-5.7188 31.594-8.0625 50.531-2.3438 18.961-6.3516 50.273-9.1406 69.211-6.5625 44.484-6.6094 206.84 0 247.2 20.203 123.49 42.117 213.66 88.617 364.76 14.133 45.914 17.414 56.93 24.891 84.961 2.0859 7.8047 9.6562 35.156 16.5 60.797 44.016 164.95 47.859 278.65 13.898 386.34-24.867 78.844-64.172 139.27-141.73 216.42-55.57 55.453-118.34 139.12-159.28 223.41h374.25c9.7734-22.594 17.602-46.219 26.367-63.727 56.18-112.08 113.13-190.88 193.73-268.08 106.08-101.62 225.54-162.59 368.04-188.23 39.141-7.0547 161.62-8.2969 200.32-1.8281 210.96 35.226 391.27 147.75 535.41 333.98 42.516 54.938 80.789 119.58 115.34 187.88h787.73c-26.555-57.562-71.719-129.66-126.23-207.28-29.93-42.633-69.656-106.95-91.289-132.56-68.719-81.445-126.59-120.8-168.21-175.9-86.508-79.945-76.219-96.539-74.227-208.99 36-179.16 46.289-513.47 36-782.72 3.7969-78.609-0.4922-119.48-4.5-161.02-14.227-146.77-42.07-234.87-99.609-349.73-45.586-90.961-102.96-169.41-178.36-244.62-84.328-84.141-166.08-142.57-275.74-196.66-133.62-65.906-260.79-99.375-416.02-109.5-27.539-1.7812-54.984-2.2734-82.406-1.8281z"/>
    <path id="path11" d="m1813.5 897.94c14.133 1.2188 28.195 3.9609 42.844 7.7109 148.59 37.992 275.55 201.91 310.92 401.37 10.383 58.641 11.273 147.89 1.8281 200.67-23.976 133.95-93.328 232.1-190.05 269.53-39.609 15.328-98.062 19.476-140.27 9.8906-100.69-22.875-200.65-111.8-261.47-232.92-29.578-58.875-58.805-155.11-58.594-192.61-4.4063-27.047-4.8984-30.07-7.3359-69.211-3.7266-13.898 1.8984-87.75 13.547-138.07 25.453-109.66 85.148-193.43 165.16-232.17 40.547-19.641 81.047-27.773 123.42-24.188z"/>
    <path id="path13" fill="#fff" d="m1179.2 897.94c42.375-3.5859 82.875 4.5469 123.42 24.188 79.922 38.672 139.45 122.51 164.79 231.8 17.203 85.758 11.25 207.26 4.4063 227.79-9.1875 69.914-48.984 170.2-93.398 235.48-60.562 89.039-145.59 152.84-226.66 169.92-72.328 15.258-140.2 0.3281-198.49-43.57-87.75-66.117-136.2-184.27-136.24-331.43-0.0234-238.97 139.5-460.57 318.98-506.46 14.648-3.75 29.086-6.4922 43.195-7.7109z"/>
    <path id="path15" fill="#333" d="m1521.2 567.63s-51.422 1268.6-19.031 1801.8c178.76 29.836 260.58 70.336 438.7 215.7 93.234 76.055 266.2 272.65 332.91 419.32h502.43c-46.8-72.3-139.5-212-161.8-238.4-28.476-33.727-67.008-78.984-85.336-100.71-58.219-69-145.27-167.18-180.54-213.87-37.336-36.891-33.586-62.859-32.226-112.43 3.3515-132.66 16.312-651.63 26.742-868.29 3.211-66.609 3.3985-93.703 0-128.91-12.047-124.36-35.836-210.28-84.609-307.62-38.602-77.086-86.977-143.53-150.87-207.28-71.461-71.297-140.72-120.8-233.65-166.62-113.2-55.828-352.66-92.648-352.66-92.648z"/>
    <path id="path17" fill="#fff" d="m1878.5 1786.7c-81.539-17.203-167.11-81.305-228.02-170.86-44.672-65.648-84.609-166.41-93.844-236.72-6.8907-20.648-12.984-142.92 4.289-229.17 25.5-109.92 85.617-194.41 165.98-233.32 54.375-26.297 108.38-31.664 167.34-16.57 416.88 90.492 431.16 973.97-15.75 886.64z"/>
    <path id="path19" fill="#ec0" d="m1427.1 1764.9-13.922 14.812c-27.703 29.344-87.352 49.359-179.11 59.906-100.76 11.602-228.89 5.3204-290.3-14.18-30.352-9.6329-38.578-7.9922-45.844 9.4921-22.898 55.219 24.984 159.73 137.55 300.3 71.391 89.156 177.52 196.34 243.94 246.35 25.852 19.477 57.375 34.852 86.766 42.305 23.906 6.0703 165.52 4.875 198.96-1.6406 11.156-2.1797 31.922-6.1172 46.102-8.8829 77.086-14.883 142.05-52.219 255.87-146.79 102.8-85.43 228.87-226.08 262.55-292.95 24.633-48.891 34.805-122.58 20.016-145.15-8.4844-12.938-12.047-13.148-44.578-2.789-31.547 10.031-139.05 20.25-211.9 20.25-30.164 0-78.844-2.8125-108.3-6.3282-85.758-10.195-135.09-27.773-164.02-58.5l-15.188-16.219zm36.867 32.414c22.336 0 34.852 29.086 26.203 61.172-14.812 55.031-50.695 81.656-72.562 53.836-23.977-30.469 10.078-115.01 46.359-115.01zm84.844 0c24.914 0 54.844 47.391 54.844 86.766 0 33.938-25.781 49.57-50.156 30.398-20.086-15.797-37.758-62.555-33.047-87.656 3.1875-17.062 15.188-29.508 28.359-29.508z"/>
    <path id="path21" d="m1290.7 1433.6c0 100.97-75.188 182.81-167.91 182.81-92.742 0-167.91-81.844-167.91-182.81 0-100.99 75.164-182.84 167.91-182.84 92.719 0 167.91 81.844 167.91 182.84z"/>
    <path id="path23" fill="#fff" d="m1251.4 1362c0 44.25-32.953 80.109-73.57 80.109-40.641 0-73.594-35.859-73.594-80.109s32.953-80.109 73.594-80.109c40.617 0 73.57 35.859 73.57 80.109z"/>
    <path id="path25" d="m2042.7 1434.8c0 100.99-75.164 182.84-167.91 182.84-92.719 0-167.91-81.844-167.91-182.84 0-100.97 75.188-182.81 167.91-182.81 92.742 0 167.91 81.844 167.91 182.81z"/>
    <path id="path27" fill="#fff" d="m2006.2 1362c0 44.25-32.93 80.109-73.57 80.109-40.617 0-73.57-35.859-73.57-80.109s32.953-80.109 73.57-80.109c40.641 0 73.57 35.859 73.57 80.109z"/>
    <path id="path41" fill="#333" d="m1048.5 855.35c-5.2031 1.5234-10.547 3.2109-15.68 5.0859-219.52 88.992-292.29 355.57-255.7 572.25 244.28-115.9 488.58-119.8 718.18-216.2-29.4-132-99.5-253.5-213.2-327.42-68.578-41.156-155.44-56.625-233.51-33.727z"/>
    <path id="path43" d="m1965 855.35c5.2032 1.5234 10.547 3.2109 15.68 5.0859 219.52 88.992 292.29 355.57 255.7 572.25-244.27-115.9-488.53-119.77-718.17-216.19 29.391-132.02 99.516-253.5 213.28-327.42 68.578-41.156 155.44-56.625 233.51-33.727z"/>
  </g>
  <path id="path45" fill="#33e13d" d="m1321 2482.4c-57.708 0.4206-149.13 83.792-220.58 206.48-41.648 71.531-68.664 142.91-78.625 200.42-43.312-191.02-122.46-358.52-156.3-338.88-1.7344 0.9844-3.325 2.5095-4.825 4.525-9.7031 13.149 96 218.88 127.88 433.42-41.906-43.102-143.39-79.555-265.15-90.125-164.6-14.297-303.76 23.997-310.65 85.45-0.61114 5.4483-0.14135 10.884 1.3 16.3h701c54.202-27.901 121.09-99.073 176.12-193.6 83.133-142.76 107.84-284.91 55.2-317.35-7.4026-4.5648-15.932-6.7188-25.375-6.65z"/>
  <path id="path47" fill="#33e13d" d="m926.28 2367.6c-59.97 0.9232-115.66 128.21-125.5 289.22-5.0391 82.641 2.9062 158.55 19.875 214.38-124.58-151.1-270.61-265.1-291.98-232.4-1.1016 1.6876-1.8781 3.7642-2.3 6.225-2.7656 16.148 184.18 152.35 309.12 329.68-50.735-17.581-141.53-8.982-241.22 25.3h320c-7.46-11.908-15.252-23.762-23.3-35.55 1.0546 0.1881 2.0968 0.6566 3.175 0.75 61.594 5.2968 119.75-124.19 129.82-289.1 10.055-164.88-31.781-303-93.375-308.32-1.4436-0.1247-2.8858-0.1721-4.325-0.15z"/>
  <path id="path49" fill="#fa9705" d="m1123.9 2454.1c-494.72-89.297-92.25-255.3-456.45 91.195-195.96 186.45 230.48 426.45 193.92 158.46-67.945-498.09 214.34-166.64-227.77-405.94-237.87-128.74-334.36 351-90.773 233.41 452.72-218.55 224.7 152.34 315.68-342.07 48.938-266.02-437.13-209.51-250.03-14.203 347.74 363.02-75.445 260.79 422.88 194.53 268.1-35.648 64.172-480.49-63.773-242.2-237.8 442.92-271.34 8.836-54.328 462.3 116.77 243.98 476.81-87.445 210.63-135.49z"/>
  <path id="path51" fill="#fadc05" d="m886.38 2354.5c19.289 42.727 0.28124 93-42.469 112.29-42.727 19.289-93.023 0.2813-112.29-42.445-19.289-42.75-0.28125-93.024 42.445-112.31 42.75-19.289 93.023-0.2813 112.31 42.469z"/>
  <path id="path53" fill="#ff5454" d="m716.16 2436.6c-482.04 142.66-197.18-186.59-366.7 286.69-91.219 254.63 397.62 277.27 244.48 54.328-284.65-414.35 116.51-245.18-385.97-260.18-270.35-8.0625-140.84 463.85 23.859 249.3 306.12-398.77 269.2 35.039 128.18-447.47-75.891-259.62-484.66 9.3984-229.73 99.726 473.84 167.93 49.875 266.86 465.19-16.383 223.45-152.39-158.7-458.04-165.84-187.64-13.266 502.52-238.38 129.87 159.33 437.34 213.98 165.42 386.58-292.48 127.22-215.72z"/>
  <path id="path55" fill="#ff0" d="m459.19 2454.4c36.445 29.508 42.07 82.969 12.562 119.41-29.508 36.445-82.969 42.07-119.39 12.562-36.445-29.508-42.094-82.969-12.586-119.41 29.509-36.421 82.969-42.07 119.41-12.562z"/>
  <g id="g3073" transform="translate(-4.375 -4.375)">
    <path id="path29" transform="scale(.8)" fill="#de0000" d="m2568.1 2376.3c-189.59-0.6136-371.21 107.64-454.97 291.25-173.75 380.78 36.042 682.43 202.91 1087.9h1251.5c71.546-43.364 134.99-95.931 188-163.41v-677.19c-44.301-49.259-99.195-90.414-163.28-119.66-181.35-82.764-386.32-46.898-528.94 74.156-2.0215-187.06-109.25-365.36-290.59-448.12-66.404-30.295-136.02-44.747-204.59-44.969z"/>
    <path id="path31" transform="scale(.8)" fill="#ff5454" d="m3368.5 2880.6c-13.316 0.1069-26.592 0.9483-39.781 2.5313-132.44 290.84-265.78 581.27-397.66 872.38h272.31c176.49-60.672 344.35-141.22 464.75-286.75 122.75-183.43 64.744-486.87-159.41-562.25-44.769-17.372-92.663-26.288-140.22-25.906z"/>
    <path id="path33" fill="#fff" d="m1764.2 2375.2 189-254.16c0.7969-0.7266 1.5234-1.5 2.1562-2.25 0.6797-0.7969 1.2422-1.6875 1.6875-2.625 1.5469-2.1094 3.0469-4.5234 4.5-7.2188 1.4766-2.6718 2.6485-4.9218 3.4688-6.75 2.9297-6.4921 4.0078-11.719 3.2812-15.656-0.7031-3.9844-3.539-8.4609-8.5312-13.406 11.18-3.8671 22.594-6.6796 34.219-8.4375 11.602-1.7343 22.922-2.3671 33.938-1.875 7.5469 0.7032 14.859 1.8047 21.938 3.2813 7.1016 1.5 13.711 3.6328 19.781 6.375 12.867 5.8125 21.68 13.711 26.438 23.625 4.7344 9.9375 4.7344 20.227 0 30.844-0.4453 1.0079-0.9609 2.086-1.5 3.1875-0.5156 1.125-1.2422 2.086-2.1563 2.8125-0.6328 1.3829-1.3593 2.6016-2.1562 3.6563-0.75 1.0781-1.3359 2.0859-1.6875 3l-191.53 256.22c-0.4453 0.9375-0.9609 1.711-1.5 2.25-0.5625 0.5625-1.0546 1.336-1.4062 2.25-0.7031 1.4532-1.5469 2.9297-2.5313 4.4063-0.9375 1.5-1.8281 3.2109-2.625 5.0625-2.5781 5.5781-2.625 10.992-0.1875 16.219 2.4141 5.2032 6.6094 9.1172 12.562 11.812 0.9844 0.4219 2.0625 0.8907 3.1875 1.4063 1.1016 0.5391 2.4844 0.9375 4.125 1.125 0.9141 0.3516 2.0625 0.5859 3.375 0.6562 1.3594 0.1172 2.6485 0.1407 3.8438 0.094 4.2891 0.3047 8.0156 0.5859 11.156 0.8437 3.1641 0.3047 5.4844 0.7969 6.9375 1.5 3.4922 0.9844 5.8125 3.2813 6.9375 6.8438 1.1719 3.5391 1.0547 6.9609-0.375 10.219-0.2578 0.4219-0.375 0.6563-0.375 0.6563-2.5078 4.4766-6.9609 8.8125-13.312 12.938-6.3281 4.1016-14.297 7.6172-23.906 10.5-2.7656 0.9844-5.5547 1.8281-8.3438 2.5312-2.8125 0.6797-5.789 1.4063-8.9062 2.1563-10.875 1.8047-21.82 2.5781-32.812 2.3437-11.016-0.2578-21.82-1.6406-32.438-4.125-5.0156-1.125-9.7031-2.414-14.062-3.8437-4.3828-1.3828-8.6719-3.0234-12.844-4.875-19.008-8.5781-32.226-20.953-39.656-37.125-7.4531-16.172-7.3125-32.836 0.375-49.969 0.6094-1.4296 1.3125-2.9531 2.0625-4.5937 0.7266-1.6172 1.6406-3 2.7187-4.125 0.6094-1.4297 1.336-2.7656 2.1563-4.0313 0.8672-1.289 1.875-2.5546 3-3.75z"/>
    <path id="path35" fill="#fff" d="m2212.1 2338.2c34.289 15.516 57.117 38.203 68.438 68.062 11.297 29.883 9.4453 61.476-5.5313 94.781-20.508 45.422-53.836 76.688-99.938 93.75-46.125 17.039-92.367 15.141-138.66-5.7187-33.375-15.07-56.133-37.852-68.25-68.344-12.141-30.539-10.875-62.016 3.75-94.406 20.484-45.422 54.094-76.688 100.78-93.75 46.664-17.039 93.141-15.164 139.41 5.625zm-42 63.75c-9.2578-4.1719-19.852-3.2344-31.781 2.8125-11.953 6.0703-20.648 15.117-26.062 27.094-4.0078 8.8125-5.0156 16.898-3 24.188 2.0391 7.3125 6.586 12.539 13.594 15.656 9.6797 4.3828 20.484 3.5625 32.438-2.4375 11.93-6.0469 20.719-15.328 26.344-27.844 3.7266-8.3672 4.5704-16.219 2.5313-23.531-2.0156-7.2891-6.7031-12.609-14.062-15.938z"/>
    <path id="path37" fill="#fff" d="m2281.9 2577.8 60.281-79.875c2.7422-3.7266 5.1094-7.2422 7.125-10.5 2.0391-3.3047 3.5157-5.8594 4.4063-7.6875 2.0391-4.6641 3.1172-8.9297 3.1875-12.75 0.1172-3.8672-0.6328-8.3672-2.25-13.5-1.0078-1.6172-1.9219-3.3047-2.7188-5.0625-0.8203-1.7344-1.7343-3.4219-2.7187-5.0625 9.4219-2.3672 18.891-4.2188 28.406-5.5313 9.4922-1.289 18.68-1.9218 27.562-1.875 11.109 0.07 21.562 1.0547 31.312 2.9063 9.7266 1.875 18.774 4.7109 27.094 8.4375 11.555 5.25 19.125 13.172 22.688 23.719 3.6094 10.5 2.6953 21.82-2.7188 33.938-0.375 0.8907-0.9609 1.8516-1.6875 2.9063-0.75 1.0781-1.4531 2.2969-2.0625 3.6562-0.1875 0.5157-0.5156 0.9141-0.9375 1.2188-0.4453 0.3281-0.75 0.7265-0.9375 1.2187l-69.656 93.094c-1.3828 1.6875-2.6016 3.4219-3.6563 5.1562-1.0078 1.7578-2.1796 3.4453-3.4687 5.0625-0.4453 0.9375-0.8906 1.8985-1.3125 2.8125-0.375 0.9375-0.7734 1.8516-1.125 2.7188-3.375 7.4531-3.75 14.414-1.125 20.906 2.6719 6.5157 7.9687 11.555 15.844 15.094 16.664 7.4765 34.524 5.9297 53.531-4.6875 18.984-10.664 39.586-30.774 61.781-60.281-3.4453-1.0547-6.6328-1.9687-9.5625-2.7187-2.9531-0.7969-5.1328-1.5235-6.5625-2.1563-12-5.414-20.203-13.828-24.562-25.219-4.3125-11.414-3.6562-23.391 1.9688-35.906 7.2891-16.172 19.5-27.117 36.562-32.812 17.039-5.7422 34.148-4.7343 51.281 3 18.047 8.2032 29.859 20.953 35.438 38.25 5.5547 17.25 3.8672 35.836-5.0625 55.688-4.0078 8.8125-9.0703 17.836-15.188 27-6.0703 9.1875-12.703 18.07-19.875 26.625-13.945 15.984-29.742 30.586-47.344 43.781-17.625 13.242-35.227 23.156-52.781 29.719-20.133 7.6641-40.852 12-62.156 12.938-21.328 0.9141-41.555-1.5234-60.656-7.3125-3.5156-0.9375-7.0546-2.1093-10.594-3.4687-3.5625-1.3828-6.9844-2.7891-10.219-4.2188-28.266-12.75-47.672-30.305-58.219-52.594-10.5-22.242-10.312-45.422 0.5625-69.562 1.4297-3.2344 3.0469-6.2813 4.875-9.0938 1.8047-2.789 3.5625-5.4609 5.25-7.9687z"/>
    <path id="path39" fill="#fff" d="m2695.4 2759.2-1.5 3.4687c-4.0078 8.8125-3.8437 17.414 0.4688 25.781 4.2891 8.2969 11.531 14.742 21.656 19.312 5.6016 2.5547 12.492 4.6875 20.625 6.375 8.1797 1.6641 16.688 2.5781 25.5 2.7187 3.2344 0.3516 6.4922 0.586 9.75 0.6563 3.3047 0.047 6.6797 0.047 10.125 0 1.0547-0.07 1.875-0.094 2.4375-0.094 0.6094 0 1.2657-0.164 1.9688-0.4687 1.1016-0.1406 3.5625-0.3281 7.3125-0.5625 3.7266-0.2578 13.617-1.4766 29.625-3.6563 2.2969-0.07 4.5234-0.047 6.6562 0.094 2.1797 0.1172 4.3125 0.375 6.375 0.75 1.1016-0.07 2.1563 0.1172 3.0938 0.5625 0.9141 0.4219 1.875 0.8437 2.8125 1.2187 4.6641 2.1094 7.875 5.25 9.5625 9.375 1.6641 4.1016 1.3828 8.7188-0.8438 13.781-3.375 7.4297-10.289 14.086-20.719 19.969-10.453 5.8594-23.883 10.969-40.312 15.281-27.375 6.5391-53.484 9.1406-78.281 7.7812-24.75-1.3828-47.789-6.8906-69.094-16.5-35.203-15.891-59.32-39.328-72.375-70.312-13.078-30.984-11.977-63.375 3.2812-97.125 19.852-43.992 55.617-74.156 107.25-90.469 51.609-16.289 102-13.383 151.12 8.7187 26.367 11.953 45 28.453 55.875 49.5 10.852 21.07 11.508 42.258 1.9688 63.562-11.953 26.391-36.07 42.422-72.375 48.094-36.258 5.625-76.922-0.3047-121.97-17.812zm35.156-59.438c20.18 5.8125 35.93 8.2266 47.25 7.2187 11.367-0.9843 18.797-5.4375 22.312-13.312 2.1094-4.664 2.4609-9.1171 1.0312-13.312-1.3828-4.2421-4.1718-7.3125-8.3437-9.1875-8.8125-3.9843-18.82-3.4921-30 1.5-11.133 4.9454-21.891 13.992-32.25 27.094z"/>
  </g>
  <metadata>
    <rdf:RDF>
      <cc:Work>
        <dc:format>image/svg+xml</dc:format>
        <dc:type rdf:resource="http://purl.org/dc/dcmitype/StillImage"/>
        <cc:license rdf:resource="http://creativecommons.org/licenses/publicdomain/"/>
        <dc:publisher>
          <cc:Agent rdf:about="http://openclipart.org/">
            <dc:title>Openclipart</dc:title>
          </cc:Agent>
        </dc:publisher>
        <dc:title>valentine penguin</dc:title>
        <dc:date>2013-05-23T02:11:01</dc:date>
        <dc:description>A penguin ready for valentines.</dc:description>
        <dc:source>https://openclipart.org/detail/178514/valentine-by-bartm-178514</dc:source>
        <dc:creator>
          <cc:Agent>
            <dc:title>BartM</dc:title>
          </cc:Agent>
        </dc:creator>
        <dc:subject>
          <rdf:Bag>
            <rdf:li>animal</rdf:li>
            <rdf:li>linux</rdf:li>
            <rdf:li>penguin</rdf:li>
            <rdf:li>pet</rdf:li>
            <rdf:li>tux</rdf:li>
            <rdf:li>valentine</rdf:li>
          </rdf:Bag>
        </dc:subject>
      </cc:Work>
      <cc:License rdf:about="http://creativecommons.org/licenses/publicdomain/">
        <cc:permits rdf:resource="http://creativecommons.org/ns#Reproduction"/>
        <cc:permits rdf:resource="http://creativecommons.org/ns#Distribution"/>
        <cc:permits rdf:resource="http://creativecommons.org/ns#DerivativeWorks"/>
      </cc:License>
    </rdf:RDF>
  </metadata>
</svg>