<?xml version="1.0" encoding="UTF-8"?>
<svg xmlns:rdf="http://www.w3.org/1999/02/22-rdf-syntax-ns#" xmlns="http://www.w3.org/2000/svg" xmlns:cc="http://creativecommons.org/ns#" xmlns:dc="http://purl.org/dc/elements/1.1/" xmlns:svg="http://www.w3.org/2000/svg" xmlns:inkscape="http://www.inkscape.org/namespaces/inkscape" xmlns:sodipodi="http://sodipodi.sourceforge.net/DTD/sodipodi-0.dtd" xmlns:ns1="http://sozi.baierouge.fr" xmlns:xlink="http://www.w3.org/1999/xlink" id="svg2" viewBox="0 0 3000 3000" version="1.1">
  <rect id="rect5" height="3e3" width="3e3" y="0" x="0" fill="#940000"/>
  <g id="g3088" transform="translate(0,-4.4063)">
    <path id="path7" fill="#fff" d="m1520.9 2457.6c-502.69 0-910.31 244.27-915.91 546.77h1832.2c-5.5781-302.51-413.58-546.77-916.24-546.77z"/>
    <path id="path9" d="m1430.7 433.59c-191.91 3.1172-378.8 60.586-526.97 163.34-211.9 146.93-352.12 372.73-411.26 663.21-2.7188 13.359-6.1641 31.734-8.0625 40.641-1.875 8.9062-5.6953 31.594-8.0625 50.531-2.3438 18.961-6.3516 50.273-9.1406 69.211-6.5625 44.484-6.6094 206.84 0 247.2 20.203 123.49 42.141 213.66 88.617 364.76 14.133 45.914 17.414 56.93 24.914 84.961 2.0859 7.8047 9.6328 35.156 16.477 60.797 44.016 164.95 47.883 278.65 13.898 386.34-24.844 78.844-64.172 139.27-141.7 216.42-55.57 55.453-118.36 139.12-159.3 223.41h374.25c9.7734-22.594 17.602-46.219 26.367-63.727 56.18-112.08 113.16-190.88 193.73-268.08 106.1-101.62 225.54-162.59 368.04-188.23 39.141-7.0547 161.65-8.2969 200.32-1.8281 210.98 35.226 391.29 147.75 535.41 333.98 42.516 54.938 80.789 119.58 115.36 187.88h787.71c-26.555-57.562-71.695-129.66-126.21-207.28-29.953-42.633-69.68-106.95-91.312-132.56-68.719-81.445-126.59-120.8-168.21-175.9-86.484-79.945-76.219-96.539-74.227-208.99 36.023-179.16 46.289-513.47 36.023-782.72 3.7735-78.609-0.4922-119.48-4.5234-161.02-14.227-146.77-42.07-234.87-99.609-349.73-45.586-90.961-102.94-169.41-178.36-244.62-84.328-84.141-166.08-142.57-275.74-196.66-133.59-65.906-260.79-99.375-416.02-109.5-27.539-1.7812-54.984-2.2734-82.406-1.8281z"/>
    <path id="path11" d="m1813.5 897.94c14.133 1.2188 28.195 3.9609 42.844 7.7109 148.59 37.992 275.55 201.91 310.92 401.37 10.383 58.641 11.273 147.89 1.8281 200.67-23.976 133.95-93.328 232.1-190.05 269.53-39.609 15.328-98.062 19.476-140.27 9.8906-100.69-22.875-200.65-111.8-261.47-232.92-29.578-58.875-58.805-155.11-58.594-192.61-4.4063-27.047-4.8984-30.07-7.3359-69.211-3.7266-13.898 1.8984-87.75 13.547-138.07 25.453-109.66 85.148-193.43 165.16-232.17 40.547-19.641 81.047-27.773 123.42-24.188z"/>
    <path id="path13" fill="#fff" d="m1179.2 897.94c42.375-3.5859 82.875 4.5469 123.42 24.188 79.922 38.672 139.45 122.51 164.79 231.8 17.203 85.758 11.25 207.26 4.4063 227.79-9.1875 69.914-48.984 170.2-93.398 235.48-60.562 89.039-145.59 152.84-226.66 169.92-72.328 15.258-140.2 0.3281-198.49-43.57-87.75-66.117-136.2-184.27-136.24-331.43-0.0234-238.97 139.5-460.57 318.98-506.46 14.648-3.75 29.086-6.4922 43.195-7.7109z"/>
    <path id="path15" fill="#333" d="m1521.2 567.63s-51.422 1268.6-19.031 1801.8c178.76 29.836 260.58 70.336 438.7 215.7 93.234 76.055 266.2 272.65 332.91 419.32h502.43c-46.8-72.3-139.5-212-161.8-238.4-28.476-33.727-67.008-78.984-85.336-100.71-58.219-69-145.27-167.18-180.54-213.87-37.336-36.891-33.586-62.859-32.226-112.43 3.3515-132.66 16.312-651.63 26.742-868.29 3.211-66.609 3.3985-93.703 0-128.91-12.047-124.36-35.836-210.28-84.609-307.62-38.602-77.086-86.977-143.53-150.87-207.28-71.461-71.297-140.72-120.8-233.65-166.62-113.2-55.828-352.66-92.648-352.66-92.648z"/>
    <path id="path17" fill="#ec0" d="m1417.3 1745.4-13.922 14.812c-27.68 29.344-87.352 49.359-179.09 59.906-100.78 11.578-228.91 5.3203-290.3-14.18-30.375-9.6563-38.602-7.9922-45.867 9.4922-22.898 55.195 24.984 159.73 137.55 300.3 71.391 89.156 177.54 196.31 243.94 246.35 25.852 19.477 57.375 34.852 86.766 42.305 23.906 6.0469 165.54 4.875 198.98-1.6406 11.133-2.1797 31.898-6.1406 46.102-8.8828 77.062-14.906 142.03-52.219 255.84-146.79 102.82-85.43 228.89-226.1 262.55-292.95 24.633-48.914 34.828-122.58 20.016-145.15-8.4844-12.961-12.024-13.148-44.578-2.7891-31.547 10.031-139.05 20.25-211.9 20.25-30.141 0-78.844-2.8125-108.28-6.3281-85.781-10.219-135.12-27.774-164.02-58.524l-15.211-16.195zm36.867 32.414c22.359 0 34.852 29.086 26.227 61.172-14.836 55.031-50.695 81.656-72.586 53.836-23.953-30.469 10.078-115.01 46.359-115.01zm84.867 0c24.891 0 54.844 47.367 54.844 86.766 0 33.938-25.781 49.57-50.156 30.398-20.086-15.797-37.781-62.578-33.07-87.656 3.2109-17.062 15.188-29.508 28.383-29.508z"/>
    <path id="path19" d="m1290.7 1433.6c0 100.97-75.188 182.81-167.91 182.81-92.742 0-167.91-81.844-167.91-182.81 0-100.99 75.164-182.84 167.91-182.84 92.719 0 167.91 81.844 167.91 182.84z"/>
    <path id="path21" fill="#fff" d="m1251.4 1362c0 44.25-32.953 80.109-73.57 80.109-40.641 0-73.594-35.859-73.594-80.109s32.953-80.109 73.594-80.109c40.617 0 73.57 35.859 73.57 80.109z"/>
    <path id="path23" fill="#7f7f7f" d="m2176.8 1424.5c0 149.27-125.34 270.3-279.96 270.3-154.59 0-279.94-121.03-279.94-270.3s125.34-270.28 279.94-270.28c154.62 0 279.96 121.01 279.96 270.28z"/>
    <path id="path25" fill="#b3b3b3" d="m1949 1198.8v446.16c111.61-17.156 196.85-110.46 196.85-223.08 0-112.59-85.242-205.9-196.85-223.08z"/>
    <path id="path27" fill="#f00" d="m2077.1 1424.5c0 95.977-79.688 173.77-177.98 173.77-98.32 0-178.01-77.789-178.01-173.77 0-95.953 79.688-173.77 178.01-173.77 98.297 0 177.98 77.812 177.98 173.77z"/>
    <path id="path29" fill="#ff5454" d="m1948.8 1288.7v264.09c58.641-16.641 101.6-69.539 101.6-132.16 0-62.625-42.961-115.29-101.6-131.93z"/>
    <path id="path31" fill="#7f7f7f" d="m1435.1 433.43c-34.617 0.5625-69.164 2.9062-103.27 6.9609l175.78 669.8h150.14l621.47-291.14c-21.492-26.32-44.648-52.383-69.961-77.648-84.328-84.141-166.08-142.55-275.74-196.64-133.62-65.906-260.79-99.375-416.02-109.5-27.539-1.8047-54.984-2.2734-82.406-1.8281z"/>
    <path id="path33" fill="#999" d="m1777.5 517.31v503.34l433.45-202.95c-19.711-24.164-40.945-48.07-64.172-71.227-77.391-77.203-152.39-130.8-253.01-180.45-39-19.219-77.461-35.25-116.27-48.727z"/>
    <path id="path35" fill="#666" d="m2099 813.3 9.6797-42.516 43.406-3.9375 17.18 40.078-32.812 28.711z"/>
    <path id="path37" fill="#666" d="m1952.9 886.36 9.6562-42.516 43.43-3.9375 17.156 40.055-32.789 28.734z"/>
    <path id="path39" fill="#666" d="m1792.2 969.16 9.6562-42.516 43.406-3.9609 17.18 40.078-32.812 28.711z"/>
    <path id="path41" fill="#666" d="m1636.4 1066.5 9.6562-42.516 43.43-3.9376 17.18 40.078-32.812 28.711z"/>
    <path id="path43" fill="#666" d="m1480.5 954.54 9.6563-42.516 43.43-3.9375 17.18 40.078-32.812 28.711z"/>
    <path id="path45" fill="#666" d="m1436.7 774.35 9.6563-42.516 43.43-3.9609 17.156 40.078-32.789 28.734z"/>
    <path id="path47" fill="#666" d="m1397.7 603.89 9.6796-42.516 43.406-3.9375 17.18 40.055-32.812 28.734z"/>
    <path id="path49" fill="#7f7f7f" d="m2547.1 1514.6c0 182.91-42.516 331.17-94.969 331.17-52.43 0-94.969-148.27-94.969-331.17 0-182.88 42.539-331.15 94.969-331.15 52.453 0 94.969 148.27 94.969 331.15z"/>
    <path id="path51" fill="#7f7f7f" d="m2126.8 1798.8c-6.0234-0.375-15.234 2.1563-31.5 7.336-31.547 10.031-139.2 20.508-212.04 20.508-30.164 0-78.586-3.0938-108.02-6.586-21.797-2.6015-41.25-5.8828-58.594-9.539-50.906 77.016-138.63 127.8-238.41 127.8-5.8125 0-11.508-0.375-17.226-0.7266l-87.141 469.12c45.633 3.375 153.05 1.5469 181.64-4.0313 11.133-2.1796 31.922-6.0468 46.125-8.789 77.086-14.906 141.82-52.266 255.63-146.86 102.8-85.43 228.89-226.1 262.57-292.97 24.609-48.891 34.922-122.44 20.133-145.01-4.2422-6.4687-7.1719-9.8906-13.172-10.266z"/>
    <path id="path53" fill="#666" d="m1422.1 2366.9 9.6797-42.516 43.406-3.9609 17.18 40.078-32.812 28.734z"/>
    <path id="path55" fill="#666" d="m1587.7 2337.7 9.6562-42.516 43.43-3.9375 17.18 40.078-32.812 28.711z"/>
    <path id="path57" fill="#666" d="m1733.8 2250 9.6563-42.516 43.43-3.961 17.18 40.078-32.812 28.734z"/>
    <path id="path59" fill="#999" d="m2079.5 1849.1c-5.0625-0.6328-12.938 0.9844-26.93 4.5-27.117 6.7735-118.41 9.8907-179.79 6.0235-12.211-0.7735-27.914-2.3438-43.711-4.2891l-23.531 373.73c7.5469-5.3438 14.93-10.617 23.039-16.523 91.172-66.539 204.89-178.41 236.81-232.97 23.344-39.891 35.953-101.32 24.68-121.15-3.2344-5.6719-5.5078-8.6953-10.57-9.3282z"/>
    <path id="path61" fill="#666" d="m1875 2138 9.6563-42.516 43.43-3.961 17.18 40.078-32.812 28.711z"/>
    <path id="path63" fill="#666" d="m1982.1 2011.4 9.6797-42.516 43.406-3.9375 17.18 40.055-32.812 28.734z"/>
    <path id="path65" fill="#666" d="m2069.8 1870.1 9.6563-42.516 43.43-3.9375 17.156 40.055-32.789 28.734z"/>
    <path id="path67" fill="#666" d="m2547.1 1504.6c0 145.38-33.797 263.25-75.469 263.25-41.695 0-75.492-117.87-75.492-263.25s33.797-263.23 75.492-263.23c41.672 0 75.469 117.84 75.469 263.23z"/>
    <path id="path69" fill="#333" d="m1178.5 869.77c-5.7188 0.0937-11.789 0.70313-17.578 1.1953-15.398 1.3125-31.125 4.3125-47.109 8.3906-128.93 32.977-239.06 148.85-299.13 298.73l649.38 291.54c7.5234-25.242 13.125-49.523 15.961-71.086 7.4531-22.406 13.945-154.9-4.7813-248.41-27.656-119.18-92.555-210.61-179.72-252.8-38.695-18.727-77.016-28.195-117.02-27.562z"/>
    <path id="path71" fill="#4c4c4c" d="m2470.8 1298.8c-1.3125 0-2.6719 0.3282-3.9609 0.6094v436.38c1.2656 0.2813 2.6719 0.3047 3.9609 0.3047 34.641 0 62.695-97.688 62.695-218.48 0-120.82-28.055-218.81-62.695-218.81z"/>
  </g>
  <metadata>
    <rdf:RDF>
      <cc:Work>
        <dc:format>image/svg+xml</dc:format>
        <dc:type rdf:resource="http://purl.org/dc/dcmitype/StillImage"/>
        <cc:license rdf:resource="http://creativecommons.org/licenses/publicdomain/"/>
        <dc:publisher>
          <cc:Agent rdf:about="http://openclipart.org/">
            <dc:title>Openclipart</dc:title>
          </cc:Agent>
        </dc:publisher>
        <dc:title>Penguin Cyborg</dc:title>
        <dc:date>2013-05-23T01:57:42</dc:date>
        <dc:description>A penguin in an outfit reminds us of tux from Linux fame.</dc:description>
        <dc:source>https://openclipart.org/detail/178469/cyborg-by-bartm-178469</dc:source>
        <dc:creator>
          <cc:Agent>
            <dc:title>BartM</dc:title>
          </cc:Agent>
        </dc:creator>
        <dc:subject>
          <rdf:Bag>
            <rdf:li>angry look</rdf:li>
            <rdf:li>cartoon</rdf:li>
            <rdf:li>cyborg</rdf:li>
            <rdf:li>evil</rdf:li>
            <rdf:li>metal implant</rdf:li>
            <rdf:li>needs_thumbnail</rdf:li>
            <rdf:li>penguin</rdf:li>
            <rdf:li>red eye</rdf:li>
            <rdf:li>tux</rdf:li>
          </rdf:Bag>
        </dc:subject>
      </cc:Work>
      <cc:License rdf:about="http://creativecommons.org/licenses/publicdomain/">
        <cc:permits rdf:resource="http://creativecommons.org/ns#Reproduction"/>
        <cc:permits rdf:resource="http://creativecommons.org/ns#Distribution"/>
        <cc:permits rdf:resource="http://creativecommons.org/ns#DerivativeWorks"/>
      </cc:License>
    </rdf:RDF>
  </metadata>
</svg>