<?xml version="1.0" encoding="UTF-8"?>
<svg xmlns:rdf="http://www.w3.org/1999/02/22-rdf-syntax-ns#" xmlns="http://www.w3.org/2000/svg" xmlns:cc="http://creativecommons.org/ns#" xmlns:dc="http://purl.org/dc/elements/1.1/" xmlns:svg="http://www.w3.org/2000/svg" xmlns:inkscape="http://www.inkscape.org/namespaces/inkscape" xmlns:sodipodi="http://sodipodi.sourceforge.net/DTD/sodipodi-0.dtd" xmlns:ns1="http://sozi.baierouge.fr" xmlns:xlink="http://www.w3.org/1999/xlink" id="svg2" viewBox="0 0 3000 3000" version="1.1">
  <rect id="rect5" height="3e3" width="3e3" y="0" x="0" fill="#ffdc54"/>
  <g id="g3046" transform="translate(0,-4.4063)">
    <path id="path7" fill="#fff" d="m1520.9 2457.6c-502.69 0-910.31 244.27-915.91 546.77h1832.2c-5.5781-302.51-413.58-546.77-916.24-546.77z"/>
    <path id="path9" fill="#fff" d="m2417.1 1351.8c0 305.39-410.34 552.96-916.5 552.96s-916.48-247.57-916.48-552.96 410.32-552.96 916.48-552.96 916.5 247.57 916.5 552.96z"/>
    <path id="path11" d="m1813.5 897.94c14.133 1.2188 28.195 3.9609 42.844 7.7109 148.59 37.992 275.55 201.91 310.92 401.37 10.383 58.641 11.273 147.89 1.8281 200.67-23.976 133.95-93.328 232.1-190.05 269.53-39.609 15.328-98.062 19.476-140.27 9.8906-100.69-22.875-200.65-111.8-261.47-232.92-29.578-58.875-58.805-155.11-58.594-192.61-4.4063-27.047-4.8984-30.07-7.3359-69.211-3.7266-13.898 1.8984-87.75 13.547-138.07 25.453-109.66 85.148-193.43 165.16-232.17 40.547-19.641 81.047-27.773 123.42-24.188z"/>
    <path id="path13" d="m1435.5 433.59c-191.91 3.1172-378.8 60.586-526.97 163.34-211.9 146.93-352.12 372.73-411.26 663.21-2.7188 13.359-6.1875 31.734-8.0625 40.641-1.875 8.9062-5.7188 31.594-8.0625 50.531-2.3438 18.961-6.3516 50.273-9.1406 69.211-6.5625 44.484-6.6094 206.84 0 247.2 20.203 123.49 42.117 213.66 88.617 364.76 14.133 45.914 17.414 56.93 24.891 84.961 2.0859 7.8047 9.6562 35.156 16.5 60.797 44.016 164.95 47.859 278.65 13.898 386.34-24.867 78.844-64.172 139.27-141.73 216.42-55.57 55.453-118.34 139.12-159.28 223.41h374.25c9.7734-22.594 17.602-46.219 26.367-63.727 56.18-112.08 113.13-190.88 193.73-268.08 106.08-101.62 225.54-162.59 368.04-188.23 39.141-7.0547 161.62-8.2969 200.32-1.8281 210.96 35.226 391.27 147.75 535.41 333.98 42.516 54.938 80.789 119.58 115.34 187.88h787.73c-26.555-57.562-71.719-129.66-126.23-207.28-29.93-42.633-69.656-106.95-91.289-132.56-68.719-81.445-126.59-120.8-168.21-175.9-86.508-79.945-76.219-96.539-74.227-208.99 36-179.16 46.289-513.47 36-782.72 3.7969-78.609-0.4922-119.48-4.5-161.02-14.227-146.77-42.07-234.87-99.609-349.73-45.586-90.961-102.96-169.41-178.36-244.62-84.328-84.141-166.08-142.57-275.74-196.66-133.62-65.906-260.79-99.375-416.02-109.5-27.539-1.7812-54.984-2.2734-82.406-1.8281z"/>
    <path id="path15" fill="#333" d="m1521.2 567.63s-51.422 1268.6-19.031 1801.8c178.76 29.836 260.58 70.336 438.7 215.7 93.234 76.055 266.2 272.65 332.91 419.32h502.43c-46.8-72.3-139.5-212-161.8-238.4-28.476-33.727-67.008-78.984-85.336-100.71-58.219-69-145.27-167.18-180.54-213.87-37.336-36.891-33.586-62.859-32.226-112.43 3.3515-132.66 16.312-651.63 26.742-868.29 3.211-66.609 3.3985-93.703 0-128.91-12.047-124.36-35.836-210.28-84.609-307.62-38.602-77.086-86.977-143.53-150.87-207.28-71.461-71.297-140.72-120.8-233.65-166.62-113.2-55.828-352.66-92.648-352.66-92.648z"/>
    <path id="path17" fill="#ec0" d="m1427.1 1764.9-13.922 14.812c-27.703 29.344-87.352 49.359-179.11 59.906-100.76 11.602-228.89 5.3204-290.3-14.18-30.352-9.6329-38.578-7.9922-45.844 9.4921-22.898 55.219 24.984 159.73 137.55 300.3 71.391 89.156 177.52 196.34 243.94 246.35 25.852 19.477 57.375 34.852 86.766 42.305 23.906 6.0703 165.52 4.875 198.96-1.6406 11.156-2.1797 31.922-6.1172 46.102-8.8829 77.086-14.883 142.05-52.219 255.87-146.79 102.8-85.43 228.87-226.08 262.55-292.95 24.633-48.891 34.805-122.58 20.016-145.15-8.4844-12.938-12.047-13.148-44.578-2.789-31.547 10.031-139.05 20.25-211.9 20.25-30.164 0-78.844-2.8125-108.3-6.3282-85.758-10.195-135.09-27.773-164.02-58.5l-15.188-16.219zm36.867 32.414c22.336 0 34.852 29.086 26.203 61.172-14.812 55.031-50.695 81.656-72.562 53.836-23.977-30.469 10.078-115.01 46.359-115.01zm84.844 0c24.914 0 54.844 47.391 54.844 86.766 0 33.938-25.781 49.57-50.156 30.398-20.086-15.797-37.758-62.555-33.047-87.656 3.1875-17.062 15.188-29.508 28.359-29.508z"/>
    <path id="path19" fill="#fff" d="m1179.2 897.94c42.375-3.5859 82.875 4.5469 123.42 24.188 79.922 38.672 139.45 122.51 164.79 231.8 17.203 85.758 11.25 207.26 4.4063 227.79-9.1875 69.914-48.984 170.2-93.398 235.48-60.562 89.039-145.59 152.84-226.66 169.92-72.328 15.258-140.2 0.3281-198.49-43.57-87.75-66.117-136.2-184.27-136.24-331.43-0.0234-238.97 139.5-460.57 318.98-506.46 14.648-3.75 29.086-6.4922 43.195-7.7109z"/>
    <path id="path21" d="m1290.7 1433.6c0 100.97-75.188 182.81-167.91 182.81-92.742 0-167.91-81.844-167.91-182.81 0-100.99 75.164-182.84 167.91-182.84 92.719 0 167.91 81.844 167.91 182.84z"/>
    <path id="path23" fill="#fff" d="m1251.4 1362c0 44.25-32.953 80.109-73.57 80.109-40.641 0-73.594-35.859-73.594-80.109s32.953-80.109 73.594-80.109c40.617 0 73.57 35.859 73.57 80.109z"/>
    <path id="path25" fill="#fff" d="m1819.6 897.94c-42.375-3.5859-82.875 4.5469-123.42 24.188-79.922 38.672-139.45 122.51-164.79 231.8-17.18 85.758-11.227 207.26-4.4063 227.79 9.1875 69.914 48.984 170.2 93.398 235.48 60.562 89.039 145.59 152.84 226.69 169.92 72.305 15.258 140.18 0.3281 198.47-43.57 87.75-66.117 136.2-184.27 136.24-331.43 0.047-238.97-139.48-460.57-318.96-506.46-14.672-3.75-29.109-6.4922-43.219-7.7109z"/>
    <path id="path27" d="m2043.9 1433.6c0 100.97-75.188 182.81-167.91 182.81-92.742 0-167.91-81.844-167.91-182.81 0-100.99 75.164-182.84 167.91-182.84 92.719 0 167.91 81.844 167.91 182.84z"/>
    <path id="path29" fill="#fff" d="m2004.7 1362c0 44.25-32.953 80.109-73.594 80.109-40.617 0-73.57-35.859-73.57-80.109s32.953-80.109 73.57-80.109c40.641 0 73.594 35.859 73.594 80.109z"/>
    <path id="path31" stroke="#f00" stroke-width="69.68" fill="#f00" d="m2440.4 1170.2c6.1406 32.226-494.81 118.29-1119 192.21-624.12 73.922-1135.1 107.7-1141.2 75.469-6.1408-32.25 494.81-118.31 1119-192.23 624.12-73.899 1135.1-107.7 1141.2-75.445z"/>
    <path id="path33" fill="#d40000" d="m1420.9 97.547c-191.93 3.1406-378.8 60.586-526.99 163.34-211.88 146.93-352.1 372.75-411.26 663.21-2.7188 13.383-6.1641 31.734-8.0391 40.641-1.8984 8.9297-5.7188 31.594-8.0625 50.555-2.3438 18.938-6.375 50.25-9.1641 69.211-6.5391 44.461 0 247.2 0 247.2l2020.1-170.79s-0.4922-119.46-4.5234-161.02c-14.2-146.76-42-234.86-99.6-349.72-45.5-90.96-102.9-169.39-178.3-244.62-84.3-84.14-166.1-142.57-275.8-196.66-133.5-65.89-260.7-99.38-416-109.5-27.516-1.7812-54.984-2.2734-82.383-1.8281z"/>
    <path id="path35" fill="#f00" d="m1448.7 211.34 45.562 930.42 817.76-61.617s-0.3984-97.617-3.6797-131.55c-11.625-119.91-34.359-191.88-81.398-285.75-37.242-74.32-84.117-138.4-145.71-199.88-68.906-68.742-135.7-116.48-225.3-160.66-109.15-53.836-213.07-81.188-339.91-89.461-22.477-1.4766-67.312-1.5-67.312-1.5z"/>
    <path id="path37" fill="#ec0" d="m1078.7 426.59c49.992 10.852 102.45 14.555 156.09 10.125 53.648-4.4531 104.77-16.758 152.32-35.672 50.016 10.852 102.45 14.555 156.09 10.125 53.648-4.4531 104.77-16.758 152.32-35.672 78.586 84 130.45 194.11 140.7 317.65 21.141 255.21-142.45 483.09-379.2 551.93-244.8-29-443.7-226.8-464.8-482.05-10.24-123.53 22.8-240.67 86.5-336.46z"/>
    <path id="path39" fill="#ec0" d="m1078.7 426.59c49.992 10.852 102.45 14.555 156.09 10.125 53.648-4.4531 104.77-16.758 152.32-35.672 50.016 10.852 102.45 14.555 156.09 10.125 53.648-4.4531 104.77-16.758 152.32-35.672 78.586 84 130.45 194.11 140.7 317.65 21.141 255.21-142.45 483.09-379.2 551.93-244.8-29-443.7-226.8-464.8-482.05-10.24-123.53 22.8-240.67 86.5-336.46z"/>
    <path id="path41" d="m1232.1 852.36c4.2891-1.8516 8.0156-3.2812 11.156-4.2188 3.1172-0.98437 6.1172-1.875 9-2.625 1.8515-0.60937 3.7734-1.0312 5.7187-1.2188 1.9922-0.16406 4.2422-0.375 6.75-0.5625 1.4297-0.11719 2.8594-0.21094 4.3125-0.28125 1.4766-0.11719 2.7188-0.23437 3.6563-0.375 4.4765 0.1875 9.375 0.58594 14.625 1.125 5.2968 0.5625 12.398 1.4766 21.281 2.7188 3.4922 0.75 6.8672 1.2656 10.125 1.5 3.3047 0.1875 5.9297 0.1875 7.875 0 5.3672-0.42187 10.524-2.1797 15.469-5.25 4.9218-3.1172 9.3984-7.5938 13.406-13.406 3.4922-5.1094 6.375-9 8.625-11.625 2.2266-2.6719 4.3125-4.5938 6.1875-5.7188 0.9141-0.60937 2.1094-1.0781 3.5625-1.4062 1.4766-0.35156 3.2344-0.65625 5.25-0.84375 5.7891-0.42187 10.594 1.4531 14.344 5.625 3.7968 4.125 6.0234 10.102 6.6562 17.906 0.4922 5.8828 0.3985 12.445-0.2812 19.688-0.6328 7.1953-1.9219 14.32-3.8438 21.375-2.3203 8.5781-5.0156 16.945-8.0625 25.125-3 8.1328-6.7265 15.586-11.156 22.312-9.5157 16.008-22.055 28.852-37.594 38.531-15.516 9.7031-32.578 15.305-51.188 16.781-3.5156 0.25781-6.7265 0.375-9.6562 0.375-2.8828 0-5.836-0.14062-8.8125-0.46875-7.5-0.86719-15.984-2.9062-25.406-6.0938-9.375-3.2344-22.242-8.625-38.531-16.125-3.1407-1.2422-6.3516-2.3438-9.6563-3.2812-3.2578-0.98437-6.6094-1.6172-10.031-1.875-1.5 0.14063-3.1407 0.16406-4.875 0.0937-1.6875-0.11719-3.2578-0.11719-4.6875 0h-0.375c-0.2578 0-0.6328 0.0469-1.125 0.0937-2.0157 0.14063-3.7735 0.25781-5.25 0.375-1.4532 0.14063-2.9297 0.51563-4.4063 1.125-2.3906 1.1953-5.2734 3.5391-8.625 7.0312-3.375 3.4453-9.2344 9.2109-17.531 17.25-1.8282 1.6406-4.0547 3.0469-6.6563 4.2188-2.625 1.1953-5.6719 1.9453-9.0937 2.25-7.875 0.60938-14.227-1.3359-19.031-5.9062-4.7578-4.5469-7.5469-12-8.3437-22.312-0.6328-7.3594-0.5391-15.141 0.2812-23.344 0.8672-8.2266 2.2031-16.359 4.0313-24.375 2.8593-13.547 7.3359-27 13.406-40.312 6.1172-13.289 13.172-25.453 21.188-36.469 1.3594-1.5469 2.4844-3 3.375-4.3125 0.8672-1.3594 1.9922-2.8359 3.375-4.4062 2.6719-3.1172 5.3672-6.1406 8.0625-9.0938 2.6719-2.9297 5.6719-5.7422 9-8.4375 7.8047-7.1016 17.812-14.742 30-22.875 12.164-8.1094 28.828-18.961 49.969-32.531 7.9922-5.0391 15.117-9.9375 21.375-14.625 6.2343-4.7344 11.672-9.2812 16.312-13.594 7.8047-7.9922 13.219-15.938 16.219-23.812 3.0469-7.9219 4.1953-16.781 3.4688-26.531-1.0078-12.234-5.0157-21.797-12-28.688-6.9375-6.8672-15.586-9.8672-25.875-9-1.5 0.0703-2.9766 0.30469-4.4063 0.65625-1.3828 0.375-2.8359 0.63281-4.3125 0.75-2.8828 1.1953-5.8594 2.6719-8.9062 4.4062-3.0703 1.7578-6.4453 4.2656-10.125 7.5 2.6718 3.2578 4.7343 6.2109 6.1875 8.8125 1.4765 2.625 2.8125 5.1094 3.9375 7.4062 1.2422 2.8125 2.0859 5.6016 2.5312 8.3438 0.4922 2.6953 0.8672 5.7656 1.125 9.1875 1.4297 17.625-3.4219 32.695-14.531 45.188-11.133 12.445-26.016 19.43-44.625 20.906-15.703 1.2656-29.391-3.3047-41.062-13.688-11.695-10.43-18.211-23.953-19.5-40.594-2.7657-34.43 11.461-64.969 42.656-91.594 31.242-26.672 70.125-41.859 116.62-45.562 35.789-2.8594 66.047 5.2031 90.75 24.188 24.727 19.008 38.391 44.461 40.969 76.312 1.4765 18.633-0.5391 36.328-6.0938 53.062-5.5781 16.758-14.273 32.016-26.062 45.75-1.3125 1.6406-2.6719 3.1172-4.0312 4.4062-1.3828 1.3125-2.7422 2.7891-4.0313 4.4062-3.2578 3.1875-6.6328 6.3047-10.125 9.2812-3.4453 3-7.4765 5.9297-12.094 8.7188-6.6328 4.5-14.789 9.3984-24.469 14.625-9.7031 5.2031-22.148 11.367-37.312 18.469-5.3203 2.4375-10.008 4.7109-14.062 6.75-4.0078 2.0156-7.6406 4.1484-10.875 6.375-3.3281 1.7578-6.5156 3.6094-9.5625 5.5312-3 1.9453-5.9297 4.0078-8.7187 6.1875-2.8125 2.25-5.4844 4.6172-7.9688 7.0312-2.5078 2.4375-5.1328 5.0156-7.875 7.6875z"/>
    <path id="path43" d="m1645.7 775.13c-8.8828 5.0625-17.273 9.5391-25.125 13.406-7.875 3.8203-15.914 6.7969-24.094 8.9062-6.75 2.5781-13.922 4.5234-21.469 5.8125-7.5 1.3125-15.211 2.2969-23.062 2.9062-29.883 2.4375-54.68-5.0625-74.344-22.5-19.641-17.414-30.68-41.367-33.094-71.812-3.75-46.547 11.18-87.961 44.812-124.22 33.609-36.234 75.703-56.391 126.28-60.469 42.117-3.3516 77.578 8.5078 106.41 35.625 28.852 27.07 45.141 63.891 48.844 110.44 5.8594 73.078-13.172 137.67-57.094 193.78-43.875 56.062-99.422 86.789-166.59 92.156-31.383 2.4844-56.977-2.7188-76.781-15.656-19.758-12.984-30.609-31.781-32.531-56.344-1.5-19.102 3.4219-35.648 14.812-49.594 11.414-13.992 26.203-21.75 44.344-23.25 15.234-1.1719 27.961 1.7578 38.156 8.8125 10.172 7.0781 15.773 16.734 16.781 28.969 0.1172 1.4531 0.211 2.7891 0.2813 4.0312 0.1172 1.1953-0.024 2.5781-0.375 4.125-0.2578 2.5078-0.6328 5.2969-1.125 8.3438-0.5156 3-1.5703 6.5156-3.1875 10.5 26.414-2.1094 48.047-12.117 64.875-30 16.852-17.859 27.961-42.516 33.281-73.969zm-36.188-174.94c-13.758 1.125-24.961 8.1094-33.562 20.906-8.5781 12.75-12.094 28.453-10.594 47.062 1.0547 13.312 4.4297 23.086 10.125 29.25 5.6719 6.1406 13.922 8.7891 24.75 7.9688 15.68-1.2891 27.703-8.2031 36.094-20.719 8.3672-12.492 11.766-28.312 10.219-47.438-1.0078-12.68-4.7578-22.219-11.25-28.594-6.4453-6.4219-15.047-9.2344-25.781-8.4375z"/>
  </g>
  <metadata>
    <rdf:RDF>
      <cc:Work>
        <dc:format>image/svg+xml</dc:format>
        <dc:type rdf:resource="http://purl.org/dc/dcmitype/StillImage"/>
        <cc:license rdf:resource="http://creativecommons.org/licenses/publicdomain/"/>
        <dc:publisher>
          <cc:Agent rdf:about="http://openclipart.org/">
            <dc:title>Openclipart</dc:title>
          </cc:Agent>
        </dc:publisher>
        <dc:title>fireman penguin</dc:title>
        <dc:date>2013-05-23T01:58:53</dc:date>
        <dc:description>A penguin in an outfit reminds us of tux from Linux fame.</dc:description>
        <dc:source>https://openclipart.org/detail/178472/fireman-by-bartm-178472</dc:source>
        <dc:creator>
          <cc:Agent>
            <dc:title>BartM</dc:title>
          </cc:Agent>
        </dc:creator>
        <dc:subject>
          <rdf:Bag>
            <rdf:li>animal</rdf:li>
            <rdf:li>color</rdf:li>
            <rdf:li>fireman</rdf:li>
            <rdf:li>linux</rdf:li>
            <rdf:li>penguin</rdf:li>
            <rdf:li>pet</rdf:li>
            <rdf:li>tux</rdf:li>
          </rdf:Bag>
        </dc:subject>
      </cc:Work>
      <cc:License rdf:about="http://creativecommons.org/licenses/publicdomain/">
        <cc:permits rdf:resource="http://creativecommons.org/ns#Reproduction"/>
        <cc:permits rdf:resource="http://creativecommons.org/ns#Distribution"/>
        <cc:permits rdf:resource="http://creativecommons.org/ns#DerivativeWorks"/>
      </cc:License>
    </rdf:RDF>
  </metadata>
</svg>