<?xml version="1.0" encoding="UTF-8"?>
<svg xmlns:rdf="http://www.w3.org/1999/02/22-rdf-syntax-ns#" xmlns="http://www.w3.org/2000/svg" xmlns:cc="http://creativecommons.org/ns#" xmlns:dc="http://purl.org/dc/elements/1.1/" xmlns:svg="http://www.w3.org/2000/svg" xmlns:inkscape="http://www.inkscape.org/namespaces/inkscape" xmlns:sodipodi="http://sodipodi.sourceforge.net/DTD/sodipodi-0.dtd" xmlns:ns1="http://sozi.baierouge.fr" xmlns:xlink="http://www.w3.org/1999/xlink" id="svg2" viewBox="0 0 3000 3000" version="1.1">
  <rect id="rect5" height="3e3" width="3e3" y="0" x="0" fill="#ccffa8"/>
  <g id="g3049" transform="translate(0,-4.4063)">
    <path id="path7" fill="#fff" d="m1520.9 2457.6c-502.69 0-910.31 244.27-915.91 546.77h1832.2c-5.5781-302.51-413.58-546.77-916.24-546.77z"/>
    <path id="path9" d="m1813.5 897.94c14.133 1.2188 28.195 3.9609 42.844 7.7109 148.59 37.992 275.55 201.91 310.92 401.37 10.383 58.641 11.273 147.89 1.8281 200.67-23.976 133.95-93.328 232.1-190.05 269.53-39.609 15.328-98.062 19.476-140.27 9.8906-100.69-22.875-200.65-111.8-261.47-232.92-29.578-58.875-58.805-155.11-58.594-192.61-4.4063-27.047-4.8984-30.07-7.3359-69.211-3.7266-13.898 1.8984-87.75 13.547-138.07 25.453-109.66 85.148-193.43 165.16-232.17 40.547-19.641 81.047-27.773 123.42-24.188z"/>
    <path id="path11" stroke="#4c4c4c" stroke-width="46.875" fill="#4c4c4c" d="m310.78 2220.8h506.48c10.758 0 19.477 8.7187 19.477 19.476v68.203c0 10.758-8.7188 19.476-19.477 19.476h-506.48c-10.758 0-19.477-8.7187-19.477-19.476v-68.203c0-10.758 8.7188-19.476 19.477-19.476z"/>
    <path id="path13" stroke="#4c4c4c" stroke-width="46.875" fill="#4c4c4c" d="m383.84 2118.5h77.906c18.844 0 34.102 15.258 34.102 34.078v248.39c0 18.82-15.258 34.078-34.102 34.078h-77.906c-18.844 0-34.102-15.258-34.102-34.078v-248.39c0-18.82 15.258-34.078 34.102-34.078z"/>
    <path id="path15" stroke="#4c4c4c" stroke-width="46.875" fill="#4c4c4c" d="m2771.4 2220.8h-525.98c-5.3672 0-9.7266 4.3594-9.7266 9.7499v87.656c0 5.3906 4.3594 9.7499 9.7266 9.7499h525.98c5.3671 0 9.7265-4.3593 9.7265-9.7499v-87.656c0-5.3905-4.3594-9.7499-9.7265-9.7499z"/>
    <path id="path17" stroke="#4c4c4c" stroke-width="46.875" fill="#4c4c4c" d="m2683.7 2118.5h-68.18c-21.516 0-38.953 17.438-38.953 38.953v238.64c0 21.516 17.438 38.953 38.953 38.953h68.18c21.539 0 38.976-17.438 38.976-38.953v-238.64c0-21.516-17.438-38.953-38.976-38.953z"/>
    <path id="path19" fill="#73d114" d="m472.05 1420.5c-6.5625 44.484-6.6094 206.84 0 247.2 20.203 123.49 42.117 213.66 88.617 364.76 14.133 45.914 17.414 56.93 24.891 84.961 2.0859 7.8047 9.6562 35.156 16.5 60.797 44.016 164.95 47.859 278.65 13.898 386.34-24.867 78.844-64.172 139.27-141.73 216.42-55.57 55.453-118.34 139.12-159.28 223.41h374.25c9.7734-22.594 17.602-46.219 26.367-63.727 56.18-112.08 113.13-190.88 193.73-268.08 106.08-101.62 225.54-162.59 368.04-188.23 39.141-7.0547 161.62-8.2969 200.32-1.8281 210.96 35.226 391.27 147.75 535.41 333.98 42.516 54.938 80.789 119.58 115.34 187.88h787.73c-26.555-57.562-71.719-129.66-126.23-207.28-29.93-42.633-69.656-106.95-91.289-132.56-68.719-81.445-126.59-120.8-168.21-175.9-86.508-79.945-76.219-96.539-74.227-208.99 36-179.16 46.289-513.47 36-782.72 3.7969-78.609-0.4922-119.48-4.5-161.02-47.9-1380.2-574.2-865.56-969.6-900.58-1014.4 218.96-973.2-108.65-1046 985.08z"/>
    <path id="path21" fill="#66bd0f" d="m1521.2 567.63s-51.422 1268.6-19.031 1801.8c178.76 29.836 260.58 70.336 438.7 215.7 93.234 76.055 266.2 272.65 332.91 419.32h502.43c-46.8-72.3-139.5-212-161.8-238.4-28.476-33.727-67.008-78.984-85.336-100.71-58.219-69-145.27-167.18-180.54-213.87-37.336-36.891-33.586-62.859-32.226-112.43 3.3515-132.66 16.312-651.63 26.742-868.29 3.211-66.609 3.3985-93.703 0-128.91-12.047-124.36 3.1172-332.04-45.633-429.38-38.625-77.086-48.047-163.01-111.91-226.76-71.461-71.297-174.82-52.594-267.75-98.438-113.2-55.828-396.49-19.594-396.49-19.594z"/>
    <path id="path23" fill="#4c4c4c" d="m1066.9 1824c-97.336-20.508-199.48-97.031-272.18-203.91-53.297-78.375-100.97-198.63-112.01-282.54 486.38 21.469 513.8 61.43 786.16 36.492-0.047 176.65-58.336 318.3-163.66 397.64-69.984 52.734-151.5 70.617-238.31 52.312z"/>
    <path id="path25" fill="#fff" d="m1133.5 1800.7c83.226-17.531 170.55-82.969 232.71-174.35 45.586-67.008 86.344-169.83 95.766-241.57 7.0313-21.094 13.266-145.9-4.3828-233.91-26.016-112.17-87.352-198.4-169.38-238.1-55.5-26.859-110.62-32.32-170.79-16.922-184.22 47.109-327.68 274.85-327.63 520.13 0.0234 151.03 49.875 272.16 139.95 340.01 59.812 45.07 129.54 60.375 203.77 44.719z"/>
    <path id="path27" fill="#ec0" d="m1427.1 1764.9-13.922 14.812c-27.703 29.344-87.352 49.359-179.11 59.906-100.76 11.602-228.89 5.3204-290.3-14.18-30.352-9.6329-38.578-7.9922-45.844 9.4921-22.898 55.219 24.984 159.73 137.55 300.3 71.391 89.156 177.52 196.34 243.94 246.35 25.852 19.477 57.375 34.852 86.766 42.305 23.906 6.0703 165.52 4.875 198.96-1.6406 11.156-2.1797 31.922-6.1172 46.102-8.8829 77.086-14.883 142.05-52.219 255.87-146.79 102.8-85.43 228.87-226.08 262.55-292.95 24.633-48.891 34.805-122.58 20.016-145.15-8.4844-12.938-12.047-13.148-44.578-2.789-31.547 10.031-139.05 20.25-211.9 20.25-30.164 0-78.844-2.8125-108.3-6.3282-85.758-10.195-135.09-27.773-164.02-58.5l-15.188-16.219zm36.867 32.414c22.336 0 34.852 29.086 26.203 61.172-14.812 55.031-50.695 81.656-72.562 53.836-23.977-30.469 10.078-115.01 46.359-115.01zm84.844 0c24.914 0 54.844 47.391 54.844 86.766 0 33.938-25.781 49.57-50.156 30.398-20.086-15.797-37.758-62.555-33.047-87.656 3.1875-17.062 15.188-29.508 28.359-29.508z"/>
    <path id="path29" fill="#4c4c4c" d="m1942.1 1838.7c97.336-20.531 199.45-97.055 272.16-203.93 53.32-78.352 100.99-198.61 112.01-282.54-486.35 21.492-513.77 61.43-786.14 36.492 0.047 176.65 58.336 318.3 163.66 397.66 69.961 52.711 151.5 70.617 238.31 52.312z"/>
    <path id="path31" fill="#fff" d="m1879.4 1800.2c-83.695-17.648-171.52-83.438-234.05-175.36-45.82-67.383-86.812-170.79-96.305-242.95-7.0547-21.211-13.336-146.72 4.4062-235.22 26.156-112.8 87.867-199.52 170.37-239.46 55.805-27.023 111.23-32.508 171.75-17.039 427.85 92.883 442.52 999.66-16.172 910.03z"/>
    <path id="path33" d="m1325.1 1562.9c0 103.64-77.156 187.64-172.34 187.64-95.18 0-172.34-84-172.34-187.64s77.156-187.66 172.34-187.66c95.18 0 172.34 84.024 172.34 187.66z"/>
    <path id="path35" d="m2039.5 1544.7c0 103.64-77.156 187.64-172.31 187.64-95.18 0-172.34-84-172.34-187.64s77.156-187.66 172.34-187.66c95.156 0 172.31 84.023 172.31 187.66z"/>
    <path id="path37" fill="#fff" d="m1284.8 1489.5c0 45.398-33.82 82.219-75.516 82.219-41.695 0-75.516-36.82-75.516-82.219 0-45.422 33.82-82.219 75.516-82.219 41.695 0 75.516 36.797 75.516 82.219z"/>
    <path id="path39" fill="#fff" d="m2002 1470c0 45.398-33.82 82.219-75.516 82.219-41.719 0-75.516-36.82-75.516-82.219 0-45.422 33.797-82.242 75.516-82.242 41.695 0 75.516 36.82 75.516 82.242z"/>
    <path id="path41" fill="#66bd0f" d="m1469.8 1457.5c8.3203-25.008 25.453-299.55 4.5469-403.9-30.8-132.93-103.6-235.14-200.8-282.22-65.766-31.828-131.11-38.297-202.43-20.062-218.39 55.852-388.45 325.83-388.41 616.57 342.28-11.812 525.91 101.2 787.1 89.648z"/>
    <path id="path43" fill="#73d114" d="m1528.7 1452.7c-8.3203-25.008-15.703-294.68 5.2032-399.02 30.844-132.96 103.55-235.17 200.79-282.26 65.789-31.828 131.13-38.297 202.45-20.062 218.37 55.852 388.43 325.83 388.38 616.57-342.26-11.812-535.64 96.328-796.83 84.774z"/>
    <path id="path45" stroke="#000" stroke-width="53.529" d="m577.59 365.25h1805.4c25.898 0 46.758 16.008 46.758 35.859v381.21c0 19.875-20.859 35.859-46.758 35.859l-55.7-326.3-170 326.3-150.9-292.2-74.8 292.2-106.4-238.64-119.2 238.64-151-228.89-74.7 228.89-62-267.84-163.7 267.84-131.9-233.77-93.7 233.77-157.34-224.02-68.39 224.02-119.18-267.84-106.5 267.84c-7.5469 19.008-46.758-15.984-46.758-35.859v-381.21c0-19.852 20.859-35.859 46.758-35.859z"/>
  </g>
  <metadata>
    <rdf:RDF>
      <cc:Work>
        <dc:format>image/svg+xml</dc:format>
        <dc:type rdf:resource="http://purl.org/dc/dcmitype/StillImage"/>
        <cc:license rdf:resource="http://creativecommons.org/licenses/publicdomain/"/>
        <dc:publisher>
          <cc:Agent rdf:about="http://openclipart.org/">
            <dc:title>Openclipart</dc:title>
          </cc:Agent>
        </dc:publisher>
        <dc:title>frankentux penguin</dc:title>
        <dc:date>2013-05-23T01:59:30</dc:date>
        <dc:description>A penguin in an outfit reminds us of tux from Linux fame.</dc:description>
        <dc:source>https://openclipart.org/detail/178474/frankentux-by-bartm-178474</dc:source>
        <dc:creator>
          <cc:Agent>
            <dc:title>BartM</dc:title>
          </cc:Agent>
        </dc:creator>
        <dc:subject>
          <rdf:Bag>
            <rdf:li>animal</rdf:li>
            <rdf:li>color</rdf:li>
            <rdf:li>frankentux</rdf:li>
            <rdf:li>linux</rdf:li>
            <rdf:li>penguin</rdf:li>
            <rdf:li>pet</rdf:li>
            <rdf:li>tux</rdf:li>
          </rdf:Bag>
        </dc:subject>
      </cc:Work>
      <cc:License rdf:about="http://creativecommons.org/licenses/publicdomain/">
        <cc:permits rdf:resource="http://creativecommons.org/ns#Reproduction"/>
        <cc:permits rdf:resource="http://creativecommons.org/ns#Distribution"/>
        <cc:permits rdf:resource="http://creativecommons.org/ns#DerivativeWorks"/>
      </cc:License>
    </rdf:RDF>
  </metadata>
</svg>