<?xml version="1.0" encoding="UTF-8"?>
<svg xmlns:rdf="http://www.w3.org/1999/02/22-rdf-syntax-ns#" xmlns="http://www.w3.org/2000/svg" xmlns:cc="http://creativecommons.org/ns#" xmlns:dc="http://purl.org/dc/elements/1.1/" xmlns:svg="http://www.w3.org/2000/svg" xmlns:inkscape="http://www.inkscape.org/namespaces/inkscape" xmlns:sodipodi="http://sodipodi.sourceforge.net/DTD/sodipodi-0.dtd" xmlns:ns1="http://sozi.baierouge.fr" xmlns:xlink="http://www.w3.org/1999/xlink" id="svg2" viewBox="0 0 3000 3000" version="1.1">
  <rect id="rect5" height="3e3" width="3e3" y="0" x="0" fill="#a885de"/>
  <g id="g3163" transform="translate(0 -4.6411)">
    <path id="path7" fill="#fff" d="m1520.9 2457.6c-502.69 0-910.31 244.27-915.91 546.77h1832.2c-5.5781-302.51-413.58-546.77-916.24-546.77z"/>
    <path id="path9" d="m1430.7 433.59c-191.91 3.1172-378.8 60.586-526.97 163.34-211.9 146.93-352.12 372.73-411.26 663.21-2.7188 13.359-6.1641 31.734-8.0625 40.641-1.875 8.9062-5.6953 31.594-8.0625 50.531-2.3438 18.961-6.3516 50.273-9.1406 69.211-6.5625 44.484-6.6094 206.84 0 247.2 20.203 123.49 42.141 213.66 88.617 364.76 14.133 45.914 17.414 56.93 24.914 84.961 2.0859 7.8047 9.6328 35.156 16.477 60.797 44.016 164.95 47.883 278.65 13.898 386.34-24.844 78.844-64.172 139.27-141.7 216.42-55.57 55.453-118.36 139.12-159.3 223.41h374.25c9.7734-22.594 17.602-46.219 26.367-63.727 56.18-112.08 113.16-190.88 193.73-268.08 106.1-101.62 225.54-162.59 368.04-188.23 39.141-7.0547 161.65-8.2969 200.32-1.8281 210.98 35.226 391.29 147.75 535.41 333.98 42.516 54.938 80.789 119.58 115.36 187.88h787.71c-26.555-57.562-71.695-129.66-126.21-207.28-29.953-42.633-69.68-106.95-91.312-132.56-68.719-81.445-126.59-120.8-168.21-175.9-86.484-79.945-76.219-96.539-74.227-208.99 36.023-179.16 46.289-513.47 36.023-782.72 3.7735-78.609-0.4922-119.48-4.5234-161.02-14.227-146.77-42.07-234.87-99.609-349.73-45.586-90.961-102.94-169.41-178.36-244.62-84.328-84.141-166.08-142.57-275.74-196.66-133.59-65.906-260.79-99.375-416.02-109.5-27.539-1.7812-54.984-2.2734-82.406-1.8281z"/>
    <path id="path11" d="m1813.5 897.94c14.133 1.2188 28.195 3.9609 42.844 7.7109 148.59 37.992 275.55 201.91 310.92 401.37 10.383 58.641 11.273 147.89 1.8281 200.67-23.976 133.95-93.328 232.1-190.05 269.53-39.609 15.328-98.062 19.476-140.27 9.8906-100.69-22.875-200.65-111.8-261.47-232.92-29.578-58.875-58.805-155.11-58.594-192.61-4.4063-27.047-4.8984-30.07-7.3359-69.211-3.7266-13.898 1.8984-87.75 13.547-138.07 25.453-109.66 85.148-193.43 165.16-232.17 40.547-19.641 81.047-27.773 123.42-24.188z"/>
    <path id="path13" fill="#fff" d="m1179.2 897.94c42.375-3.5859 82.875 4.5469 123.42 24.188 79.922 38.672 139.45 122.51 164.79 231.8 17.203 85.758 11.25 207.26 4.4063 227.79-9.1875 69.914-48.984 170.2-93.398 235.48-60.562 89.039-145.59 152.84-226.66 169.92-72.328 15.258-140.2 0.3281-198.49-43.57-87.75-66.117-136.2-184.27-136.24-331.43-0.0234-238.97 139.5-460.57 318.98-506.46 14.648-3.75 29.086-6.4922 43.195-7.7109z"/>
    <path id="path15" fill="#333" d="m1521.2 567.63s-51.422 1268.6-19.031 1801.8c178.76 29.836 260.58 70.336 438.7 215.7 93.234 76.055 266.2 272.65 332.91 419.32h502.43c-46.8-72.3-139.5-212-161.8-238.4-28.476-33.727-67.008-78.984-85.336-100.71-58.219-69-145.27-167.18-180.54-213.87-37.336-36.891-33.586-62.859-32.226-112.43 3.3515-132.66 16.312-651.63 26.742-868.29 3.211-66.609 3.3985-93.703 0-128.91-12.047-124.36-35.836-210.28-84.609-307.62-38.602-77.086-86.977-143.53-150.87-207.28-71.461-71.297-140.72-120.8-233.65-166.62-113.2-55.828-352.66-92.648-352.66-92.648z"/>
    <path id="path17" stroke="#d7cf00" stroke-width="23.438" fill="none" d="m2488.4 2380.7c-1152.8 777.7-1874.3 60.2-1874.3 60.2"/>
    <path id="path19" fill="#fff" d="m1878.5 1786.7c-81.539-17.203-167.11-81.305-228.02-170.86-44.672-65.648-84.609-166.41-93.844-236.72-6.8907-20.648-12.984-142.92 4.289-229.17 25.5-109.92 85.617-194.41 165.98-233.32 54.375-26.297 108.38-31.664 167.34-16.57 416.88 90.492 431.16 973.97-15.75 886.64z"/>
    <path id="path21" fill="#ec0" d="m1417.3 1745.4-13.922 14.812c-27.68 29.344-87.352 49.359-179.09 59.906-100.78 11.578-228.91 5.3203-290.3-14.18-30.375-9.6563-38.602-7.9922-45.867 9.4922-22.898 55.195 24.984 159.73 137.55 300.3 71.391 89.156 177.54 196.31 243.94 246.35 25.852 19.477 57.375 34.852 86.766 42.305 23.906 6.0469 165.54 4.875 198.98-1.6406 11.133-2.1797 31.898-6.1406 46.102-8.8828 77.062-14.906 142.03-52.219 255.84-146.79 102.82-85.43 228.89-226.1 262.55-292.95 24.633-48.914 34.828-122.58 20.016-145.15-8.4844-12.961-12.024-13.148-44.578-2.7891-31.547 10.031-139.05 20.25-211.9 20.25-30.141 0-78.844-2.8125-108.28-6.3281-85.781-10.219-135.12-27.774-164.02-58.524l-15.211-16.195zm36.867 32.414c22.359 0 34.852 29.086 26.227 61.172-14.836 55.031-50.695 81.656-72.586 53.836-23.953-30.469 10.078-115.01 46.359-115.01zm84.867 0c24.891 0 54.844 47.367 54.844 86.766 0 33.938-25.781 49.57-50.156 30.398-20.086-15.797-37.781-62.578-33.07-87.656 3.2109-17.062 15.188-29.508 28.383-29.508z"/>
    <path id="path23" d="m1290.7 1433.6c0 100.97-75.188 182.81-167.91 182.81-92.742 0-167.91-81.844-167.91-182.81 0-100.99 75.164-182.84 167.91-182.84 92.719 0 167.91 81.844 167.91 182.84z"/>
    <path id="path25" fill="#fff" d="m1251.4 1362c0 44.25-32.953 80.109-73.57 80.109-40.641 0-73.594-35.859-73.594-80.109s32.953-80.109 73.594-80.109c40.617 0 73.57 35.859 73.57 80.109z"/>
    <path id="path27" fill-opacity=".39216" d="m1471.9 1468.3c0 179.23-160.08 324.49-357.54 324.49s-357.54-145.27-357.54-324.49c0-179.2 160.08-324.47 357.54-324.47s357.54 145.27 357.54 324.47z"/>
    <path id="path29" fill="#d40000" d="m507.05 1271.1h320.88v48.703h-320.88z"/>
    <path id="path31" fill="#d40000" d="m1456.2 1349h131.48v48.703h-131.48z"/>
    <path id="path33" stroke="#e80000" stroke-width="58.594" fill="none" d="m1483.9 1468.3c0 179.23-160.05 324.49-357.54 324.49-197.46 0-357.52-145.27-357.52-324.49 0-179.2 160.05-324.47 357.52-324.47 197.48 0 357.54 145.27 357.54 324.47z"/>
    <path id="path35" d="m2042.7 1434.8c0 100.99-75.164 182.84-167.91 182.84-92.719 0-167.91-81.844-167.91-182.84 0-100.97 75.188-182.81 167.91-182.81 92.742 0 167.91 81.844 167.91 182.81z"/>
    <path id="path37" fill="#fff" d="m2006.2 1362c0 44.25-32.93 80.109-73.57 80.109-40.617 0-73.57-35.859-73.57-80.109s32.953-80.109 73.57-80.109c40.641 0 73.57 35.859 73.57 80.109z"/>
    <path id="path39" fill-opacity=".39216" d="m2260.9 1473.2c0 179.2-160.08 324.49-357.54 324.49s-357.54-145.29-357.54-324.49 160.08-324.49 357.54-324.49 357.54 145.29 357.54 324.49z"/>
    <path id="path41" fill="#d40000" d="m2206.2 1271.1h344.18v48.703h-344.18z"/>
    <path id="path43" stroke="#e80000" stroke-width="58.594" fill="none" d="m2272.9 1473.2c0 179.2-160.08 324.49-357.54 324.49s-357.54-145.29-357.54-324.49 160.08-324.49 357.54-324.49 357.54 145.29 357.54 324.49z"/>
    <path id="path45" d="m1494.6 433.57c1046.4-345.49 905.2 1866.9 905.2 1866.9" stroke="#9e301c" stroke-linecap="round" stroke-width="86.297" fill="none"/>
    <path id="path47" d="m1458.9 439.52c2011.3-123.77 880.1 2344.7 911.2 2456.5" stroke="#d18c5e" stroke-linecap="round" stroke-width="86.297" fill="none"/>
    <path id="path49" d="m1548.2 433.57c1074.2-498.23 1226.5 1135.9 1107.7 1789.5" stroke="#9e301c" stroke-linecap="round" stroke-width="86.297" fill="none"/>
    <path id="path51" d="m1703 463.36c921.66-82.477 980.32 1483.9 851.65 2218.3" stroke="#d18c5e" stroke-linecap="round" stroke-width="86.297" fill="none"/>
    <path id="path53" d="m1518.4 463.36c1073.1-530.98 1012.6 1048.9 920.9 2490" stroke="#9e301c" stroke-linecap="round" stroke-width="86.297" fill="none"/>
    <path id="path55" d="m1536.3 451.43c1170.2-280.01 750.4 2000.3 1298.2 2486.3" stroke="#9e301c" stroke-linecap="round" stroke-width="86.297" fill="none"/>
    <path id="path57" d="m1554.1 499.08c1170.2-280.03 648.1 1975.8 1195.9 2461.7" stroke="#d18c5e" stroke-linecap="round" stroke-width="86.297" fill="none"/>
    <path id="path59" d="m1494.6 433.57c1046.4-345.49 905.2 1866.9 905.2 1866.9" stroke="#9e301c" stroke-linecap="round" stroke-width="86.297" fill="none"/>
    <path id="path61" d="m1458.9 439.52c2011.3-123.77 880.1 2344.7 911.2 2456.5" stroke="#d18c5e" stroke-linecap="round" stroke-width="86.297" fill="none"/>
    <path id="path63" d="m1548.2 433.57c1074.2-498.23 1226.5 1135.9 1107.7 1789.5" stroke="#9e301c" stroke-linecap="round" stroke-width="86.297" fill="none"/>
    <path id="path65" d="m1703 463.36c921.66-82.477 980.32 1483.9 851.65 2218.3" stroke="#d18c5e" stroke-linecap="round" stroke-width="86.297" fill="none"/>
    <path id="path67" d="m1518.4 463.36c1073.1-530.98 1117.9 1044.5 1026.2 2485.6" stroke="#9e301c" stroke-linecap="round" stroke-width="86.297" fill="none"/>
    <path id="path69" d="m1536.3 451.43c1170.2-280.01 750.4 2000.3 1298.2 2486.3" stroke="#9e301c" stroke-linecap="round" stroke-width="86.297" fill="none"/>
    <path id="path71" d="m1554.1 499.08c1170.2-280.03 776.4 1897.5 1324.3 2383.4" stroke="#d18c5e" stroke-linecap="round" stroke-width="86.297" fill="none"/>
    <path id="path73" d="m1518.6 439.52c-1046.4-345.49-905.29 1867-905.29 1867" stroke="#9e301c" stroke-linecap="round" stroke-width="86.297" fill="none"/>
    <path id="path75" d="m1554.3 445.48c-2011.4-123.78-880.17 2344.6-911.2 2456.4" stroke="#d18c5e" stroke-linecap="round" stroke-width="86.297" fill="none"/>
    <path id="path77" d="m1465 439.52c-1074.2-498.23-1226.6 1136-1107.7 1789.6" stroke="#9e301c" stroke-linecap="round" stroke-width="86.297" fill="none"/>
    <path id="path79" d="m1310.2 469.31c-921.7-82.47-980.39 1483.9-851.69 2218.3" stroke="#d18c5e" stroke-linecap="round" stroke-width="86.297" fill="none"/>
    <path id="path81" d="m1494.8 469.31c-1073.1-530.97-1074.1 1027-982.38 2468.1" stroke="#9e301c" stroke-linecap="round" stroke-width="86.297" fill="none"/>
    <path id="path83" d="m1476.9 457.38c-1170.2-280.01-750.41 2000.3-1298.3 2486.2" stroke="#9e301c" stroke-linecap="round" stroke-width="86.297" fill="none"/>
    <path id="path85" d="m1459 505.03c-1170.2-280.03-622.85 1950.2-1170.7 2436.1" stroke="#d18c5e" stroke-linecap="round" stroke-width="86.297" fill="none"/>
    <path id="path87" stroke-linejoin="round" d="m2318.5 490.69c-272.27-177.45 13.781-168.59-298.15-65.18-167.84 55.641 22.781 301.17 73.359 139.66 93.984-300.21 173.46-39.68-26.719-288.84-107.72-134.04-295.24 113.62-117.52 109.27 330.38-8.0625 93.445 144.07 281.67-113.32 101.25-138.49-205.29-230.95-145.99-72.117 110.2 295.2-115.71 128.72 200.79 218.79 170.3 48.445 168.37-256.36 27.281-153.84-262.27 190.52-164.95-64.5-157.57 248.55 3.9843 168.42 309.35 72.516 162.84-22.969z" stroke="#00f" stroke-width="24.799" fill="#06f"/>
    <path id="path89" stroke-linejoin="round" d="m2203.1 373.27c0 29.227-24.984 52.898-55.805 52.898-30.82 0-55.805-23.672-55.805-52.898 0-29.203 24.984-52.875 55.805-52.875 30.82 0 55.805 23.672 55.805 52.875z" stroke="#00f" stroke-width="24.799" fill="#fadc05"/>
    <path id="path91" stroke-linejoin="round" d="m2330.2 865.55c-272.27-177.47 13.781-168.61-298.15-65.18-167.84 55.617 22.781 301.17 73.359 139.64 93.961-300.21 173.46-39.68-26.719-288.82-107.72-134.06-295.27 113.6-117.52 109.24 330.38-8.0625 93.445 144.07 281.65-113.32 101.27-138.49-205.27-230.95-145.97-72.117 110.2 295.22-115.73 128.72 200.79 218.79 170.3 48.469 168.38-256.36 27.281-153.84-262.2 190.52-164.9-64.5-157.5 248.55 3.9843 168.42 309.35 72.516 162.84-22.945z" stroke="#f57f05" stroke-width="24.799" fill="#fa9705"/>
    <path id="path93" stroke-linejoin="round" d="m2214.8 748.12c0 29.203-24.984 52.875-55.805 52.875-30.82 0-55.828-23.672-55.828-52.875 0-29.227 25.008-52.898 55.828-52.898s55.805 23.672 55.805 52.898z" stroke="#f57f05" stroke-width="24.799" fill="#fadc05"/>
    <path id="path95" stroke-linejoin="round" d="m2023.4 703.87c-272.3-177.45 13.758-168.59-298.17-65.18-167.84 55.641 22.805 301.2 73.359 139.66 93.984-300.21 173.48-39.68-26.719-288.84-107.7-134.04-295.24 113.63-117.49 109.27 330.35-8.0625 93.445 144.07 281.65-113.32 101.27-138.49-205.27-230.95-145.97-72.117 110.18 295.2-115.73 128.72 200.77 218.79 170.3 48.445 168.4-256.36 27.281-153.84-262.24 190.52-164.95-64.5-157.55 248.55 3.9844 168.42 309.33 72.516 162.84-22.969z" stroke="#e30075" stroke-width="24.799" fill="#f0f"/>
    <path id="path97" stroke-linejoin="round" d="m1908 586.48c0 29.203-24.984 52.875-55.828 52.875-30.82 0-55.805-23.672-55.805-52.875 0-29.227 24.984-52.898 55.805-52.898 30.844 0 55.828 23.672 55.828 52.898z" stroke="#e80068" stroke-width="24.799" fill="#fadc05"/>
    <path id="path99" stroke-linejoin="round" d="m1464.4 2796.3c-132.84-86.578 6.7266-82.242-145.48-31.805-81.891 27.164 11.109 146.95 35.789 68.156 45.844-146.48 84.633-19.383-13.031-140.93-52.547-65.414-144.07 55.43-57.328 53.297 161.18-3.9375 45.586 70.289 137.41-55.289 49.406-67.57-100.15-112.69-71.226-35.18 53.766 144.02-56.461 62.789 97.969 106.73 83.086 23.648 82.148-125.06 13.312-75.047-127.97 92.953-80.484-31.476-76.875 121.27 1.9453 82.172 150.94 35.391 79.453-11.203z" stroke="#00b500" stroke-width="12.1" fill="#54d400"/>
    <path id="path101" stroke-linejoin="round" d="m1408.1 2739c0 14.25-12.188 25.805-27.234 25.805-15.024 0-27.211-11.555-27.211-25.805s12.188-25.805 27.211-25.805c15.047 0 27.234 11.555 27.234 25.805z" stroke="#00b500" stroke-width="12.1" fill="#fadc05"/>
    <path id="path103" stroke-linejoin="round" d="m1797.9 2772.4c-132.87-86.578 6.7031-82.266-145.48-31.805-81.891 27.141 11.109 146.95 35.789 68.133 45.844-146.46 84.633-19.359-13.031-140.93-52.57-65.391-144.07 55.43-57.352 53.32 161.2-3.9375 45.609 70.289 137.44-55.289 49.406-67.57-100.15-112.69-71.227-35.203 53.766 144.05-56.461 62.812 97.969 106.76 83.086 23.648 82.148-125.09 13.312-75.07-127.97 92.976-80.484-31.453-76.875 121.29 1.9453 82.172 150.91 35.367 79.453-11.203z" stroke="#bf0c00" stroke-width="12.1" fill="#f00"/>
    <path id="path105" stroke-linejoin="round" d="m1741.6 2715.1c0 14.25-12.188 25.805-27.234 25.805-15.023 0-27.234-11.555-27.234-25.805s12.211-25.805 27.234-25.805c15.047 0 27.234 11.555 27.234 25.805z" stroke="#bf0c00" stroke-width="12.1" fill="#fadc05"/>
    <path id="path107" stroke-linejoin="round" d="m1152.5 2745.8c-132.84-86.602 6.7265-82.266-145.48-31.805-81.891 27.141 11.133 146.95 35.789 68.133 45.867-146.46 84.656-19.359-13.031-140.93-52.547-65.391-144.05 55.43-57.328 53.32 161.18-3.9376 45.586 70.289 137.41-55.289 49.406-67.57-100.15-112.69-71.227-35.203 53.766 144.05-56.461 62.812 97.969 106.76 83.086 23.648 82.172-125.09 13.312-75.07-127.95 92.976-80.484-31.477-76.875 121.29 1.9454 82.172 150.94 35.367 79.453-11.203z" stroke="#630c68" stroke-width="12.1" fill="#9e2b87"/>
    <path id="path109" stroke-linejoin="round" d="m1096.2 2688.5c0 14.25-12.211 25.805-27.234 25.805-15.047 0-27.234-11.555-27.234-25.805s12.188-25.805 27.234-25.805c15.024 0 27.234 11.555 27.234 25.805z" stroke="#630c68" stroke-width="12.1" fill="#fadc05"/>
    <path id="path111" stroke-linejoin="round" d="m2391 2546.2c-132.84-86.602 6.7265-82.266-145.48-31.805-81.891 27.141 11.109 146.93 35.789 68.133 45.844-146.48 84.633-19.359-13.031-140.93-52.547-65.391-144.05 55.43-57.328 53.32 161.18-3.9375 45.586 70.289 137.41-55.289 49.406-67.57-100.15-112.69-71.227-35.203 53.766 144.05-56.461 62.812 97.969 106.76 83.086 23.648 82.148-125.09 13.313-75.07-127.97 92.977-80.484-31.477-76.875 121.27 1.9454 82.195 150.94 35.391 79.453-11.18z" stroke="#00f" stroke-width="12.1" fill="#06f"/>
    <path id="path113" stroke-linejoin="round" d="m2334.7 2488.9c0 14.25-12.188 25.805-27.234 25.805-15.024 0-27.211-11.555-27.211-25.805s12.188-25.805 27.211-25.805c15.047 0 27.234 11.555 27.234 25.805z" stroke="#00f" stroke-width="12.1" fill="#fadc05"/>
    <path id="path115" stroke-linejoin="round" d="m2097.4 2682.5c-132.87-86.578 6.7031-82.242-145.48-31.805-81.891 27.164 11.109 146.95 35.789 68.156 45.844-146.48 84.633-19.383-13.031-140.93-52.57-65.414-144.07 55.43-57.328 53.297 161.18-3.9375 45.586 70.289 137.41-55.289 49.406-67.57-100.15-112.69-71.226-35.18 53.766 144.02-56.461 62.789 97.969 106.73 83.086 23.648 82.148-125.06 13.312-75.047-127.97 92.953-80.484-31.477-76.875 121.27 1.9454 82.172 150.91 35.391 79.453-11.203z" stroke="#f57f05" stroke-width="12.1" fill="#fa9705"/>
    <path id="path117" stroke-linejoin="round" d="m2041 2625.2c0 14.25-12.188 25.805-27.234 25.805-15.024 0-27.234-11.555-27.234-25.805s12.211-25.805 27.234-25.805c15.047 0 27.234 11.555 27.234 25.805z" stroke="#f57f05" stroke-width="12.1" fill="#fadc05"/>
    <path id="path119" stroke-linejoin="round" d="m855.59 2599.4c-132.84-86.578 6.7266-82.266-145.48-31.805-81.891 27.141 11.133 146.95 35.789 68.133 45.867-146.46 84.656-19.359-13.031-140.93-52.547-65.391-144.05 55.453-57.328 53.32 161.2-3.9375 45.586 70.289 137.41-55.289 49.406-67.57-100.15-112.69-71.227-35.203 53.789 144.05-56.461 62.813 97.969 106.76 83.086 23.648 82.172-125.09 13.312-75.047-127.95 92.953-80.484-31.477-76.875 121.27 1.9453 82.172 150.94 35.391 79.453-11.203z" stroke="#e30075" stroke-width="12.1" fill="#f0f"/>
    <path id="path121" stroke-linejoin="round" d="m799.29 2542.1c0 14.274-12.188 25.805-27.234 25.805-15.047 0-27.234-11.531-27.234-25.805 0-14.25 12.188-25.781 27.234-25.781 15.047 0 27.234 11.531 27.234 25.781z" stroke="#e80068" stroke-width="12.1" fill="#fadc05"/>
  </g>
  <metadata>
    <rdf:RDF>
      <cc:Work>
        <dc:format>image/svg+xml</dc:format>
        <dc:type rdf:resource="http://purl.org/dc/dcmitype/StillImage"/>
        <cc:license rdf:resource="http://creativecommons.org/licenses/publicdomain/"/>
        <dc:publisher>
          <cc:Agent rdf:about="http://openclipart.org/">
            <dc:title>Openclipart</dc:title>
          </cc:Agent>
        </dc:publisher>
        <dc:title>hippie penguin</dc:title>
        <dc:date>2013-05-23T02:01:19</dc:date>
        <dc:description>A penguin in an outfit reminds us of tux from Linux fame.</dc:description>
        <dc:source>https://openclipart.org/detail/178480/hippie-by-bartm-178480</dc:source>
        <dc:creator>
          <cc:Agent>
            <dc:title>BartM</dc:title>
          </cc:Agent>
        </dc:creator>
        <dc:subject>
          <rdf:Bag>
            <rdf:li>animal</rdf:li>
            <rdf:li>color</rdf:li>
            <rdf:li>hippie</rdf:li>
            <rdf:li>linux</rdf:li>
            <rdf:li>penguin</rdf:li>
            <rdf:li>pet</rdf:li>
            <rdf:li>tux</rdf:li>
          </rdf:Bag>
        </dc:subject>
      </cc:Work>
      <cc:License rdf:about="http://creativecommons.org/licenses/publicdomain/">
        <cc:permits rdf:resource="http://creativecommons.org/ns#Reproduction"/>
        <cc:permits rdf:resource="http://creativecommons.org/ns#Distribution"/>
        <cc:permits rdf:resource="http://creativecommons.org/ns#DerivativeWorks"/>
      </cc:License>
    </rdf:RDF>
  </metadata>
</svg>