<?xml version="1.0" encoding="UTF-8"?>
<svg xmlns:rdf="http://www.w3.org/1999/02/22-rdf-syntax-ns#" xmlns="http://www.w3.org/2000/svg" xmlns:cc="http://creativecommons.org/ns#" xmlns:dc="http://purl.org/dc/elements/1.1/" xmlns:svg="http://www.w3.org/2000/svg" xmlns:inkscape="http://www.inkscape.org/namespaces/inkscape" xmlns:sodipodi="http://sodipodi.sourceforge.net/DTD/sodipodi-0.dtd" xmlns:ns1="http://sozi.baierouge.fr" xmlns:xlink="http://www.w3.org/1999/xlink" id="svg2" viewBox="0 0 3000 3000" version="1.1">
  <rect id="rect5" height="3e3" width="3e3" y="0" x="0" fill="#5ed15e"/>
  <path id="path7" fill="#fff" d="m1520.9 2453.2c-502.69 0-910.31 244.27-915.91 546.77h1832.2c-5.5781-302.51-413.58-546.77-916.24-546.77z"/>
  <path id="path9" d="m1430.7 429.19c-191.91 3.1172-378.8 60.586-526.97 163.34-211.9 146.93-352.12 372.73-411.26 663.21-2.7188 13.359-6.1641 31.734-8.0625 40.641-1.875 8.9062-5.6953 31.594-8.0625 50.531-2.3438 18.961-6.3516 50.273-9.1406 69.211-6.5625 44.484-6.6094 206.84 0 247.2 20.203 123.49 42.141 213.66 88.617 364.76 14.133 45.914 17.414 56.93 24.914 84.961 2.0859 7.8047 9.6328 35.156 16.477 60.797 44.016 164.95 47.883 278.65 13.898 386.34-24.844 78.844-64.172 139.27-141.7 216.42-55.61 55.4-118.4 139.1-159.34 223.4h374.25c9.7734-22.594 17.602-46.219 26.367-63.727 56.18-112.08 113.16-190.88 193.73-268.08 106.1-101.62 225.54-162.59 368.04-188.23 39.141-7.0547 161.65-8.2969 200.32-1.8281 210.98 35.226 391.29 147.75 535.41 333.98 42.516 54.938 80.789 119.58 115.36 187.88h787.71c-26.555-57.562-71.695-129.66-126.21-207.28-29.953-42.633-69.68-106.95-91.312-132.56-68.719-81.445-126.59-120.8-168.21-175.9-86.484-79.945-76.219-96.539-74.227-208.99 36.023-179.16 46.289-513.47 36.023-782.72 3.7735-78.609-0.4922-119.48-4.5234-161.02-14.227-146.77-42.07-234.87-99.609-349.73-45.586-90.961-102.94-169.41-178.36-244.62-84.328-84.141-166.08-142.57-275.74-196.66-133.59-65.906-260.79-99.375-416.02-109.5-27.539-1.7812-54.984-2.2734-82.406-1.8281z"/>
  <path id="path11" d="m1813.5 897.94c14.133 1.2188 28.195 3.9609 42.844 7.7109 148.59 37.992 275.55 201.91 310.92 401.37 10.383 58.641 11.273 147.89 1.8281 200.67-23.976 133.95-93.328 232.1-190.05 269.53-39.609 15.328-98.062 19.476-140.27 9.8906-100.69-22.875-200.65-111.8-261.47-232.92-29.578-58.875-58.805-155.11-58.594-192.61-4.4063-27.047-4.8984-30.07-7.3359-69.211-3.7266-13.898 1.8984-87.75 13.547-138.07 25.453-109.66 85.148-193.43 165.16-232.17 40.547-19.641 81.047-27.773 123.42-24.188z"/>
  <path id="path13" fill="#fff" d="m1179.2 897.94c42.375-3.5859 82.875 4.5469 123.42 24.188 79.922 38.672 139.45 122.51 164.79 231.8 17.203 85.758 11.25 207.26 4.4063 227.79-9.1875 69.914-48.984 170.2-93.398 235.48-60.562 89.039-145.59 152.84-226.66 169.92-72.328 15.258-140.2 0.3281-198.49-43.57-87.75-66.117-136.2-184.27-136.24-331.43-0.0234-238.97 139.5-460.57 318.98-506.46 14.648-3.75 29.086-6.4922 43.195-7.7109z"/>
  <path id="path15" fill="#333" d="m1521.2 563.23s-51.422 1268.6-19.031 1801.8c178.76 29.836 260.58 70.336 438.7 215.7 93.234 76.055 266.2 272.65 332.91 419.32h502.43c-46.852-72.281-139.55-212.02-161.86-238.41-28.476-33.727-67.008-78.984-85.336-100.71-58.219-69-145.27-167.18-180.54-213.87-37.336-36.891-33.586-62.859-32.226-112.43 3.3515-132.66 16.312-651.63 26.742-868.29 3.211-66.609 3.3985-93.703 0-128.91-12.047-124.36-35.836-210.28-84.609-307.62-38.602-77.086-86.977-143.53-150.87-207.28-71.461-71.297-140.72-120.8-233.65-166.62-113.2-55.828-352.66-92.648-352.66-92.648z"/>
  <path id="path17" fill="#fff" d="m1878.5 1786.7c-81.539-17.203-167.11-81.305-228.02-170.86-44.672-65.648-84.609-166.41-93.844-236.72-6.8907-20.648-12.984-142.92 4.289-229.17 25.5-109.92 85.617-194.41 165.98-233.32 54.375-26.297 108.38-31.664 167.34-16.57 416.88 90.492 431.16 973.97-15.75 886.64z"/>
  <path id="path19" fill="#ec0" d="m1417.3 1745.4-13.922 14.812c-27.68 29.344-87.352 49.359-179.09 59.906-100.78 11.578-228.91 5.3203-290.3-14.18-30.375-9.6563-38.602-7.9922-45.867 9.4922-22.898 55.195 24.984 159.73 137.55 300.3 71.391 89.156 177.54 196.31 243.94 246.35 25.852 19.477 57.375 34.852 86.766 42.305 23.906 6.0469 165.54 4.875 198.98-1.6406 11.133-2.1797 31.898-6.1406 46.102-8.8828 77.062-14.906 142.03-52.219 255.84-146.79 102.82-85.43 228.89-226.1 262.55-292.95 24.633-48.914 34.828-122.58 20.016-145.15-8.4844-12.961-12.024-13.148-44.578-2.7891-31.547 10.031-139.05 20.25-211.9 20.25-30.141 0-78.844-2.8125-108.28-6.3281-85.781-10.219-135.12-27.774-164.02-58.524l-15.211-16.195zm36.867 32.414c22.359 0 34.852 29.086 26.227 61.172-14.836 55.031-50.695 81.656-72.586 53.836-23.953-30.469 10.078-115.01 46.359-115.01zm84.867 0c24.891 0 54.844 47.367 54.844 86.766 0 33.938-25.781 49.57-50.156 30.398-20.086-15.797-37.781-62.578-33.07-87.656 3.2109-17.062 15.188-29.508 28.383-29.508z"/>
  <path id="path21" d="m1290.7 1433.6c0 100.97-75.188 182.81-167.91 182.81-92.742 0-167.91-81.844-167.91-182.81 0-100.99 75.164-182.84 167.91-182.84 92.719 0 167.91 81.844 167.91 182.84z"/>
  <path id="path23" fill="#fff" d="m1251.4 1362c0 44.25-32.953 80.109-73.57 80.109-40.641 0-73.594-35.859-73.594-80.109s32.953-80.109 73.594-80.109c40.617 0 73.57 35.859 73.57 80.109z"/>
  <path id="path25" d="m2042.7 1434.8c0 100.99-75.164 182.84-167.91 182.84-92.719 0-167.91-81.844-167.91-182.84 0-100.97 75.188-182.81 167.91-182.81 92.742 0 167.91 81.844 167.91 182.81z"/>
  <path id="path27" fill="#fff" d="m2006.2 1362c0 44.25-32.93 80.109-73.57 80.109-40.617 0-73.57-35.859-73.57-80.109s32.953-80.109 73.57-80.109c40.641 0 73.57 35.859 73.57 80.109z"/>
  <path id="path29" fill="#00007f" d="m1484.7 28.336c-487.73 0-883.01 433.27-883.01 967.76 0 87.469 10.641 172.45 30.492 253.05h1705c19.852-80.602 30.516-165.56 30.516-253.05 0-534.49-395.3-967.76-883.03-967.76z"/>
  <path id="path31" transform="scale(.8)" fill="#00007f" d="m734.34 606.41l-2.09 0.68c4.86 7.94 9.39 16.3 13.84 24.57l0.41-0.1-12.16-25.12v-0.03zm125.38 258.68l-51.84 16.22c-6.27 182.59-125.25 343.49-323.04 405.29-160.9 50.3-338.83 23.7-484.84-58.6v254.2l158.44 326.9 1006.5-314.3-305.18-629.71z"/>
  <path id="path33" transform="scale(.8)" fill="#00007f" d="m2989.9 633.22v0.03l-12.1 25.13 0.4 0.09c4.5-8.26 9-16.62 13.9-24.56l-2.2-0.69zm-125.3 258.69l-305.2 629.69 1006.5 314.3 189.6-391.1v-208.7c-151.4 96.7-343.5 131.2-516 77.3-197.8-61.8-316.8-222.7-323.1-405.28l-51.8-16.21z"/>
  <path id="path35" transform="scale(.8)" fill="#000054" d="m2744 1017.8l-221.5 427.1 1011.6 338.3 221.4-426.4v-54.1c-132.9 108.4-373.4 138.8-599 63.5-198.8-66.5-332.8-196.9-360.3-331l-52.2-17.4z"/>
  <path id="path37" fill="#000054" d="m1994 289.73v909.77h275.58c18.586-73.125 28.758-150.05 28.758-229.41 0-274.5-118.64-519.4-304.34-680.37z"/>
  <path id="path39" fill="#287dff" d="m2014.8 221.7 31.453 26.578 27.469 25.453 49.524 52.945 43.266 53.367 34.922 50.016-376.73 374.51-199.97-199.52z"/>
  <path id="path41" fill="#fc0" d="m1979.1 629.67c0 97.055-80.883 175.73-180.68 175.73-99.773 0-180.66-78.68-180.66-175.73 0-97.055 80.883-175.73 180.66-175.73 99.797 0 180.68 78.68 180.68 175.73z"/>
  <path id="path43" fill="#d4a800" d="m1917.4 629.67c0 62.344-51.961 112.88-116.04 112.88-64.102 0-116.04-50.531-116.04-112.88 0-62.344 51.938-112.88 116.04-112.88 64.078 0 116.04 50.531 116.04 112.88z"/>
  <path id="path45" stroke="#f0c700" stroke-width="65.18" fill="none" d="m1985 632.53c0 97.055-80.883 175.73-180.68 175.73-99.774 0-180.68-78.68-180.68-175.73 0-97.055 80.906-175.73 180.68-175.73 99.797 0 180.68 78.68 180.68 175.73z"/>
  <path id="path47" fill="#fc0" d="m116.93 2479.8h30.586c12.773 0 23.109 10.359 23.109 23.133v233.88c0 12.774-10.336 23.109-23.109 23.109h-30.586c-12.75 0-23.109-10.336-23.109-23.109v-233.88c0-12.773 10.359-23.133 23.109-23.133z"/>
  <path id="path49" fill="#fc0" d="m216.66 2484.3h20.883c15.445 0 27.961 12.516 27.961 27.961v282.94c0 15.445-12.516 27.961-27.961 27.961h-20.883c-15.445 0-27.961-12.516-27.961-27.961v-282.94c0-15.445 12.516-27.961 27.961-27.961z"/>
  <path id="path51" fill="#fc0" d="m343.17 2506.9h20.883c15.445 0 27.961 12.516 27.961 27.961v282.94c0 15.445-12.516 27.961-27.961 27.961h-20.883c-15.445 0-27.961-12.516-27.961-27.961v-282.94c0-15.445 12.516-27.961 27.961-27.961z"/>
  <path id="path53" fill="#fc0" d="m605.23 2515.9h20.883c15.422 0 27.961 12.516 27.961 27.961v282.91c0 15.445-12.539 27.984-27.961 27.984h-20.883c-15.445 0-27.961-12.539-27.961-27.984v-282.91c0-15.445 12.516-27.961 27.961-27.961z"/>
  <path id="path55" fill="#fc0" d="m478.71 2520.4h20.883c15.445 0 27.961 12.539 27.961 27.984v282.91c0 15.445-12.516 27.961-27.961 27.961h-20.883c-15.445 0-27.961-12.516-27.961-27.961v-282.91c0-15.445 12.516-27.984 27.961-27.984z"/>
  <path id="path57" fill="#d4a800" d="m965.81 2470.7c0 62.391-214.43 112.95-478.92 112.95s-478.92-50.555-478.92-112.95c0-62.391 214.43-112.95 478.92-112.95s478.92 50.555 478.92 112.95z"/>
  <path id="path59" fill="#d4a800" d="m162.45 2484.3h20.883c15.445 0 27.961 12.516 27.961 27.961v282.94c0 15.445-12.516 27.961-27.961 27.961h-20.883c-15.445 0-27.961-12.516-27.961-27.961v-282.94c0-15.445 12.516-27.961 27.961-27.961z"/>
  <path id="path61" fill="#d4a800" d="m43.525 2475.3h32.812c12.164 0 22.008 9.8438 22.008 21.984v222.59c0 12.141-9.8438 21.984-22.008 21.984h-32.812c-12.141 0-21.984-9.8437-21.984-21.984v-222.59c0-12.141 9.8438-21.984 21.984-21.984z"/>
  <path id="path63" fill="#d4a800" d="m284.44 2538.5h20.883c15.445 0 27.961 12.516 27.961 27.961v282.91c0 15.445-12.516 27.961-27.961 27.961h-20.883c-15.445 0-27.961-12.516-27.961-27.961v-282.91c0-15.445 12.516-27.961 27.961-27.961z"/>
  <path id="path65" fill="#d4a800" d="m410.95 2538.5h20.859c15.445 0 27.961 12.539 27.961 27.984v282.91c0 15.445-12.516 27.961-27.961 27.961h-20.859c-15.445 0-27.984-12.516-27.984-27.961v-282.91c0-15.445 12.539-27.984 27.984-27.984z"/>
  <path id="path67" fill="#d4a800" d="m541.97 2538.5h20.883c15.445 0 27.961 12.539 27.961 27.984v282.91c0 15.445-12.516 27.961-27.961 27.961h-20.883c-15.445 0-27.961-12.516-27.961-27.961v-282.91c0-15.445 12.516-27.984 27.961-27.984z"/>
  <path id="path69" fill="#d4a800" d="m672.99 2543h20.883c15.445 0 27.961 12.516 27.961 27.961v282.94c0 15.445-12.516 27.961-27.961 27.961h-20.883c-15.445 0-27.961-12.516-27.961-27.961v-282.94c0-15.445 12.516-27.961 27.961-27.961z"/>
  <path id="path71" fill="#ffd428" d="m658.53 2379.6v168.68c153-15.867 257.44-47.531 257.44-84.188 0-36.656-104.44-68.625-257.44-84.492z"/>
  <path id="path73" fill="#fc0" d="m2976.9 2461.3h-30.562c-12.773 0-23.133 10.359-23.133 23.109v233.91c0 12.75 10.359 23.109 23.133 23.109h30.562c12.774 0 23.109-10.359 23.109-23.109v-233.91c0-12.75-10.336-23.109-23.109-23.109z"/>
  <path id="path75" fill="#fc0" d="m2909.3 2465.8h-20.883c-15.445 0-27.961 12.516-27.961 27.961v282.94c0 15.445 12.516 27.961 27.961 27.961h20.883c15.445 0 27.961-12.516 27.961-27.961v-282.94c0-15.445-12.516-27.961-27.961-27.961z"/>
  <path id="path77" fill="#fc0" d="m2782.8 2488.4h-20.883c-15.445 0-27.961 12.516-27.961 27.961v282.91c0 15.445 12.516 27.961 27.961 27.961h20.883c15.445 0 27.961-12.516 27.961-27.961v-282.91c0-15.445-12.516-27.961-27.961-27.961z"/>
  <path id="path79" fill="#fc0" d="m2520.8 2497.4h-20.883c-15.445 0-27.961 12.516-27.961 27.961v282.94c0 15.445 12.516 27.961 27.961 27.961h20.883c15.445 0 27.961-12.516 27.961-27.961v-282.94c0-15.445-12.516-27.961-27.961-27.961z"/>
  <path id="path81" fill="#fc0" d="m2647.3 2502h-20.859c-15.445 0-27.984 12.516-27.984 27.961v282.94c0 15.445 12.539 27.961 27.984 27.961h20.859c15.445 0 27.984-12.516 27.984-27.961v-282.94c0-15.445-12.539-27.961-27.984-27.961z"/>
  <path id="path83" transform="scale(.8)" fill="#d4a800" d="m3298.8 2924.1c-330.6 0-598.6 63.3-598.6 141.2 0 78 268 141.2 598.6 141.2 180 0 341.5-18.7 451.2-48.4v-185.6c-109.7-29.6-271.2-48.4-451.2-48.4z"/>
  <path id="path85" fill="#d4a800" d="m2963.5 2465.8h-20.859c-15.445 0-27.984 12.516-27.984 27.961v282.94c0 15.445 12.539 27.961 27.984 27.961h20.859c15.445 0 27.984-12.516 27.984-27.961v-282.94c0-15.445-12.539-27.961-27.984-27.961z"/>
  <path id="path89" fill="#d4a800" d="m2841.5 2520h-20.883c-15.445 0-27.961 12.516-27.961 27.961v282.94c0 15.445 12.516 27.961 27.961 27.961h20.883c15.445 0 27.961-12.516 27.961-27.961v-282.94c0-15.445-12.516-27.961-27.961-27.961z"/>
  <path id="path91" fill="#d4a800" d="m2715 2520h-20.883c-15.445 0-27.961 12.516-27.961 27.961v282.94c0 15.445 12.516 27.961 27.961 27.961h20.883c15.445 0 27.961-12.516 27.961-27.961v-282.94c0-15.445-12.516-27.961-27.961-27.961z"/>
  <path id="path93" fill="#d4a800" d="m2584 2520h-20.883c-15.445 0-27.961 12.516-27.961 27.961v282.94c0 15.445 12.516 27.961 27.961 27.961h20.883c15.445 0 27.961-12.516 27.961-27.961v-282.94c0-15.445-12.516-27.961-27.961-27.961z"/>
  <path id="path95" fill="#d4a800" d="m2453 2524.5h-20.883c-15.445 0-27.961 12.516-27.961 27.961v282.94c0 15.445 12.516 27.961 27.961 27.961h20.883c15.445 0 27.961-12.516 27.961-27.961v-282.94c0-15.445-12.516-27.961-27.961-27.961z"/>
  <path id="path97" transform="scale(.8)" fill="#ffd428" d="m3524.9 2951.3v210.9c91.5-9.5 169-23.5 225.1-40.5v-129.6c-56.1-17.2-133.6-31.3-225.1-40.8z"/>
  <metadata>
    <rdf:RDF>
      <cc:Work>
        <dc:format>image/svg+xml</dc:format>
        <dc:type rdf:resource="http://purl.org/dc/dcmitype/StillImage"/>
        <cc:license rdf:resource="http://creativecommons.org/licenses/publicdomain/"/>
        <dc:publisher>
          <cc:Agent rdf:about="http://openclipart.org/">
            <dc:title>Openclipart</dc:title>
          </cc:Agent>
        </dc:publisher>
        <dc:title>napoleon penguin</dc:title>
        <dc:date>2013-05-23T02:04:12</dc:date>
        <dc:description>A penguin in an outfit reminds us of tux from Linux fame.</dc:description>
        <dc:source>https://openclipart.org/detail/178490/napoleon-by-bartm-178490</dc:source>
        <dc:creator>
          <cc:Agent>
            <dc:title>BartM</dc:title>
          </cc:Agent>
        </dc:creator>
        <dc:subject>
          <rdf:Bag>
            <rdf:li>animal</rdf:li>
            <rdf:li>color</rdf:li>
            <rdf:li>linux</rdf:li>
            <rdf:li>napoleon</rdf:li>
            <rdf:li>penguin</rdf:li>
            <rdf:li>pet</rdf:li>
            <rdf:li>tux</rdf:li>
          </rdf:Bag>
        </dc:subject>
      </cc:Work>
      <cc:License rdf:about="http://creativecommons.org/licenses/publicdomain/">
        <cc:permits rdf:resource="http://creativecommons.org/ns#Reproduction"/>
        <cc:permits rdf:resource="http://creativecommons.org/ns#Distribution"/>
        <cc:permits rdf:resource="http://creativecommons.org/ns#DerivativeWorks"/>
      </cc:License>
    </rdf:RDF>
  </metadata>
</svg>