<?xml version="1.0" encoding="UTF-8"?>
<svg xmlns:rdf="http://www.w3.org/1999/02/22-rdf-syntax-ns#" xmlns="http://www.w3.org/2000/svg" xmlns:cc="http://creativecommons.org/ns#" xmlns:dc="http://purl.org/dc/elements/1.1/" xmlns:svg="http://www.w3.org/2000/svg" xmlns:inkscape="http://www.inkscape.org/namespaces/inkscape" xmlns:sodipodi="http://sodipodi.sourceforge.net/DTD/sodipodi-0.dtd" xmlns:ns1="http://sozi.baierouge.fr" xmlns:xlink="http://www.w3.org/1999/xlink" id="svg2" viewBox="0 0 3000 3000" version="1.1">
  <rect id="rect5" height="3e3" width="3e3" y="0" x="0" fill="#54ff54"/>
  <g id="g3092" transform="translate(0,-4.4063)">
    <path id="path7" fill="#fff" d="m1520.9 2457.6c-502.69 0-910.31 244.27-915.91 546.77h1832.2c-5.5781-302.51-413.58-546.77-916.24-546.77z"/>
    <path id="path9" d="m1430.7 433.59c-191.91 3.1172-378.8 60.586-526.97 163.34-211.9 146.93-352.12 372.73-411.26 663.21-2.7188 13.359-6.1641 31.734-8.0625 40.641-1.875 8.9062-5.6953 31.594-8.0625 50.531-2.3438 18.961-6.3516 50.273-9.1406 69.211-6.5625 44.484-6.6094 206.84 0 247.2 20.203 123.49 42.141 213.66 88.617 364.76 14.133 45.914 17.414 56.93 24.914 84.961 2.0859 7.8047 9.6328 35.156 16.477 60.797 44.016 164.95 47.883 278.65 13.898 386.34-24.844 78.844-64.172 139.27-141.7 216.42-55.57 55.453-118.36 139.12-159.3 223.41h374.25c9.7734-22.594 17.602-46.219 26.367-63.727 56.18-112.08 113.16-190.88 193.73-268.08 106.1-101.62 225.54-162.59 368.04-188.23 39.141-7.0547 161.65-8.2969 200.32-1.8281 210.98 35.226 391.29 147.75 535.41 333.98 42.516 54.938 80.789 119.58 115.36 187.88h787.71c-26.555-57.562-71.695-129.66-126.21-207.28-29.953-42.633-69.68-106.95-91.312-132.56-68.719-81.445-126.59-120.8-168.21-175.9-86.484-79.945-76.219-96.539-74.227-208.99 36.023-179.16 46.289-513.47 36.023-782.72 3.7735-78.609-0.4922-119.48-4.5234-161.02-14.227-146.77-42.07-234.87-99.609-349.73-45.586-90.961-102.94-169.41-178.36-244.62-84.328-84.141-166.08-142.57-275.74-196.66-133.59-65.906-260.79-99.375-416.02-109.5-27.539-1.7812-54.984-2.2734-82.406-1.8281z"/>
    <path id="path11" d="m1813.5 897.94c14.133 1.2188 28.195 3.9609 42.844 7.7109 148.59 37.992 275.55 201.91 310.92 401.37 10.383 58.641 11.273 147.89 1.8281 200.67-23.976 133.95-93.328 232.1-190.05 269.53-39.609 15.328-98.062 19.476-140.27 9.8906-100.69-22.875-200.65-111.8-261.47-232.92-29.578-58.875-58.805-155.11-58.594-192.61-4.4063-27.047-4.8984-30.07-7.3359-69.211-3.7266-13.898 1.8984-87.75 13.547-138.07 25.453-109.66 85.148-193.43 165.16-232.17 40.547-19.641 81.047-27.773 123.42-24.188z"/>
    <path id="path13" fill="#fff" d="m1179.2 897.94c42.375-3.5859 82.875 4.5469 123.42 24.188 79.922 38.672 139.45 122.51 164.79 231.8 17.203 85.758 11.25 207.26 4.4063 227.79-9.1875 69.914-48.984 170.2-93.398 235.48-60.562 89.039-145.59 152.84-226.66 169.92-72.328 15.258-140.2 0.3281-198.49-43.57-87.75-66.117-136.2-184.27-136.24-331.43-0.0234-238.97 139.5-460.57 318.98-506.46 14.648-3.75 29.086-6.4922 43.195-7.7109z"/>
    <path id="path15" fill="#333" d="m1521.2 567.63s-51.422 1268.6-19.031 1801.8c178.76 29.836 260.58 70.336 438.7 215.7 93.234 76.055 266.2 272.65 332.91 419.32h502.43c-46.8-72.3-139.5-212-161.8-238.4-28.476-33.727-67.008-78.984-85.336-100.71-58.219-69-145.27-167.18-180.54-213.87-37.336-36.891-33.586-62.859-32.226-112.43 3.3515-132.66 16.312-651.63 26.742-868.29 3.211-66.609 3.3985-93.703 0-128.91-12.047-124.36-35.836-210.28-84.609-307.62-38.602-77.086-86.977-143.53-150.87-207.28-71.461-71.297-140.72-120.8-233.65-166.62-113.2-55.828-352.66-92.648-352.66-92.648z"/>
    <path id="path17" fill="#fff" d="m1878.5 1786.7c-81.539-17.203-167.11-81.305-228.02-170.86-44.672-65.648-84.609-166.41-93.844-236.72-6.8907-20.648-12.984-142.92 4.289-229.17 25.5-109.92 85.617-194.41 165.98-233.32 54.375-26.297 108.38-31.664 167.34-16.57 416.88 90.492 431.16 973.97-15.75 886.64z"/>
    <path id="path19" fill="#ec0" d="m1417.3 1745.4-13.922 14.812c-27.68 29.344-87.352 49.359-179.09 59.906-100.78 11.578-228.91 5.3203-290.3-14.18-30.375-9.6563-38.602-7.9922-45.867 9.4922-22.898 55.195 24.984 159.73 137.55 300.3 71.391 89.156 177.54 196.31 243.94 246.35 25.852 19.477 57.375 34.852 86.766 42.305 23.906 6.0469 165.54 4.875 198.98-1.6406 11.133-2.1797 31.898-6.1406 46.102-8.8828 77.062-14.906 142.03-52.219 255.84-146.79 102.82-85.43 228.89-226.1 262.55-292.95 24.633-48.914 34.828-122.58 20.016-145.15-8.4844-12.961-12.024-13.148-44.578-2.7891-31.547 10.031-139.05 20.25-211.9 20.25-30.141 0-78.844-2.8125-108.28-6.3281-85.781-10.219-135.12-27.774-164.02-58.524l-15.211-16.195zm36.867 32.414c22.359 0 34.852 29.086 26.227 61.172-14.836 55.031-50.695 81.656-72.586 53.836-23.953-30.469 10.078-115.01 46.359-115.01zm84.867 0c24.891 0 54.844 47.367 54.844 86.766 0 33.938-25.781 49.57-50.156 30.398-20.086-15.797-37.781-62.578-33.07-87.656 3.2109-17.062 15.188-29.508 28.383-29.508z"/>
    <path id="path21" d="m1290.7 1433.6c0 100.97-75.188 182.81-167.91 182.81-92.742 0-167.91-81.844-167.91-182.81 0-100.99 75.164-182.84 167.91-182.84 92.719 0 167.91 81.844 167.91 182.84z"/>
    <path id="path23" fill="#fff" d="m1251.4 1362c0 44.25-32.953 80.109-73.57 80.109-40.641 0-73.594-35.859-73.594-80.109s32.953-80.109 73.594-80.109c40.617 0 73.57 35.859 73.57 80.109z"/>
    <path id="path25" d="m2042.7 1434.8c0 100.99-75.164 182.84-167.91 182.84-92.719 0-167.91-81.844-167.91-182.84 0-100.97 75.188-182.81 167.91-182.81 92.742 0 167.91 81.844 167.91 182.81z"/>
    <path id="path27" fill="#fff" d="m2006.2 1362c0 44.25-32.93 80.109-73.57 80.109-40.617 0-73.57-35.859-73.57-80.109s32.953-80.109 73.57-80.109c40.641 0 73.57 35.859 73.57 80.109z"/>
    <path id="path29" fill="#000028" d="m853.78 326.3h1246.2c203.16 0 367.85 164.7 367.85 367.83 0 203.16-164.7 367.85-367.85 367.85h-1246.2c-203.16 0-367.83-164.7-367.83-367.85 0-203.13 164.67-367.83 367.83-367.83z"/>
    <path id="path31" fill="#000028" d="m539.6 623.79h1874.6c29.625 0 53.648 24.023 53.648 53.648v338.93c0 29.625-24.024 53.648-53.648 53.648h-1874.6c-29.625 0-53.648-24.023-53.648-53.648v-338.93c0-29.625 24.023-53.648 53.648-53.648z"/>
    <path id="path33" fill="#000028" d="m2375.4 1060c0 205.38-403.17 371.86-900.49 371.86-497.34 0-900.52-166.48-900.52-371.86"/>
    <path id="path35" fill="#00007f" d="m1952.1 415.85v382.64h153.49c151.08 0 272.72-85.336 272.72-191.32 0-105.96-121.64-191.32-272.72-191.32z"/>
    <path id="path37" fill="#00007f" d="m1952.1 618.66v232.2h383.41c22.031 0 39.891-12.539 39.891-27.984v-176.23c0-15.469-17.859-27.984-39.891-27.984z"/>
    <path id="path39" fill="#fff" d="m485.95 909.21h1977.9v100.5h-1977.9z"/>
    <path id="path41" fill="#e6e6e6" d="m1922 921.26h467.3v72.375h-467.3z"/>
    <path id="path43" fill="#00007f" d="m1984.7 1065.4-219.16 279.23c381.77-48.727 560.67-179.84 560.67-279.23z"/>
    <path id="path45" fill="#ec0" d="m1291 520.71c31.594 9.3984 65.133 14.344 99.82 14.086 34.688-0.23437 68.133-5.6719 99.586-15.516 31.617 9.3984 65.133 14.344 99.82 14.086 34.688-0.25782 68.133-5.6719 99.609-15.516 46.406 57.797 74.414 131.06 74.977 210.94 1.1953 165.02-114.98 303.52-270.45 336.23-155.93-30.469-274.1-167.27-275.3-332.3-0.586-79.875 26.344-153.54 71.93-212.02z"/>
    <path id="path47" fill="#ec0" d="m1291 520.71c31.594 9.3984 65.133 14.344 99.82 14.086 34.688-0.23437 68.133-5.6719 99.586-15.516 31.617 9.3984 65.133 14.344 99.82 14.086 34.688-0.25782 68.133-5.6719 99.609-15.516 46.406 57.797 74.414 131.06 74.977 210.94 1.1953 165.02-114.98 303.52-270.45 336.23-155.93-30.469-274.1-167.27-275.3-332.3-0.586-79.875 26.344-153.54 71.93-212.02z"/>
    <path id="path49" fill="#ffdc54" d="m1655.3 573.87c-23.484 7.3594-48.445 11.555-74.32 11.742-24.609 0.1875-48.492-3.4688-71.039-9.8203v406.34c115.73-24.633 202.27-127.9 201.38-250.85-0.4219-59.625-21.375-114.28-56.016-157.41z"/>
    <path id="path51" d="m1438.2 957.79 33.562-211.69c0.3047-0.72657 0.4687-1.4062 0.4687-1.9688 0-0.60938 0.1172-1.3359 0.375-2.1562v-5.9062c0-5.4141-1.1484-9.2109-3.375-11.344-2.2031-2.1797-6.6797-3.4922-13.406-3.9375-5.3203-0.72657-9.2578-2.6719-11.812-5.8125-2.5078-3.1641-3.75-7.7109-3.75-13.594 0-4.6641 0.8437-8.9531 2.5312-12.844 1.6641-3.9141 4.336-7.2656 7.9688-10.031l68.906-57.094c3.3516-2.7422 6.7032-4.7812 10.031-6.0938 3.3515-1.3594 6.6094-2.0625 9.75-2.0625 5.8594 0 10.734 2.4609 14.625 7.3125 3.914 4.875 5.9062 11.273 5.9062 19.125 0 2.3203-0.2343 5.3672-0.6562 9.0938-0.375 3.75-1.0078 7.8047-1.875 12.094-0.8203 3.8906-1.9453 10.055-3.375 18.469-1.3828 8.4375-2.9297 18.727-4.5938 30.844-0.2578 2.7656-1.1718 9.0469-2.7187 18.844-1.5703 9.8203-3.4922 21.797-5.7188 35.906-1.0781 8.625-2.4609 18.445-4.125 29.438-1.6875 10.945-3.6797 23.273-5.9062 36.938-1.3828 11.016-2.6485 20.648-3.75 28.875-1.125 8.25-1.9922 15.117-2.5313 20.531-0.3281 2.0156-0.539 3.9844-0.6562 5.9062-0.1406 1.9453-0.3516 3.9141-0.6563 5.9062-2.25 20.766-5.3672 33.609-9.2812 38.531-3.8906 4.875-12.258 7.3125-25.125 7.3125h-21.844c-3.6328 0-6.6328 0.1875-9 0.5625-2.3906 0.42187-4.7109 1.4297-6.9375 3-1.6875 1.1016-3.6093 2.9531-5.7187 5.5312-2.0625 2.5547-4.5235 5.8125-7.3125 9.75z"/>
  </g>
  <g id="g3131">
    <path id="path53" transform="scale(.8)" fill="#4f2b14" d="m199.72 1634.5c-9.49 0.1-19.14 2-28.41 5.9l-50.34 21.6c-37.091 15.9-54.284 58.8-38.376 95.9l853.5 1992.1h218.61l-887.45-2071.2c-11.93-27.8-39.07-44.4-67.53-44.3z"/>
    <path id="path55" fill="#4f2b14" d="m705.21 2695.5 323.39-138.56c25.664-10.992 55.383 0.8906 66.375 26.555l21.562 50.344c10.992 25.641-0.8907 55.359-26.555 66.352l-323.43 138.6c-25.641 10.992-55.359-0.8906-66.352-26.555l-21.562-50.32c-10.992-25.664 0.89062-55.383 26.555-66.375z"/>
    <path id="path57" transform="scale(.8)" fill="#78421e" d="m188.38 1652.5c-9.34 0-18.84 1.9-28 5.8l-11.19 4.8 894.11 2086.9h91.3l-879.88-2053.6c-11.78-27.5-38.34-44-66.34-43.9z"/>
    <path id="path59" fill="#fff" d="m138.96 1576.5 147.73-63.305 11.508 26.859-147.73 63.305z"/>
    <path id="path61" fill="#fff" d="m166.64 1641.1 147.73-63.305 11.508 26.859-147.73 63.305z"/>
    <path id="path63" fill="#fff" d="m194.34 1705.7 147.73-63.281 11.508 26.859-147.73 63.281z"/>
    <path id="path65" fill="#fff" d="m111.26 1511.8 147.73-63.281 11.508 26.859-147.73 63.281z"/>
    <path id="path67" fill="#78421e" d="m784.62 2762.2 2.0156 4.7109c7.3359 17.133 28.594 24.352 47.648 16.172l239.63-102.66c19.055-8.1797 28.5-28.523 21.141-45.656l-2.0156-4.711z"/>
  </g>
  <metadata>
    <rdf:RDF>
      <cc:Work>
        <dc:format>image/svg+xml</dc:format>
        <dc:type rdf:resource="http://purl.org/dc/dcmitype/StillImage"/>
        <cc:license rdf:resource="http://creativecommons.org/licenses/publicdomain/"/>
        <dc:publisher>
          <cc:Agent rdf:about="http://openclipart.org/">
            <dc:title>Openclipart</dc:title>
          </cc:Agent>
        </dc:publisher>
        <dc:title>cop penguin</dc:title>
        <dc:date>2013-05-23T01:57:26</dc:date>
        <dc:description>A penguin in an outfit reminds us of tux from Linux fame.</dc:description>
        <dc:source>https://openclipart.org/detail/178468/cop-by-bartm-178468</dc:source>
        <dc:creator>
          <cc:Agent>
            <dc:title>BartM</dc:title>
          </cc:Agent>
        </dc:creator>
        <dc:subject>
          <rdf:Bag>
            <rdf:li>animal</rdf:li>
            <rdf:li>color</rdf:li>
            <rdf:li>cop</rdf:li>
            <rdf:li>linux</rdf:li>
            <rdf:li>penguin</rdf:li>
            <rdf:li>pet</rdf:li>
            <rdf:li>tux</rdf:li>
          </rdf:Bag>
        </dc:subject>
      </cc:Work>
      <cc:License rdf:about="http://creativecommons.org/licenses/publicdomain/">
        <cc:permits rdf:resource="http://creativecommons.org/ns#Reproduction"/>
        <cc:permits rdf:resource="http://creativecommons.org/ns#Distribution"/>
        <cc:permits rdf:resource="http://creativecommons.org/ns#DerivativeWorks"/>
      </cc:License>
    </rdf:RDF>
  </metadata>
</svg>