<?xml version="1.0" encoding="UTF-8"?>
<svg xmlns:rdf="http://www.w3.org/1999/02/22-rdf-syntax-ns#" xmlns="http://www.w3.org/2000/svg" xmlns:cc="http://creativecommons.org/ns#" xmlns:dc="http://purl.org/dc/elements/1.1/" xmlns:svg="http://www.w3.org/2000/svg" xmlns:inkscape="http://www.inkscape.org/namespaces/inkscape" xmlns:sodipodi="http://sodipodi.sourceforge.net/DTD/sodipodi-0.dtd" xmlns:ns1="http://sozi.baierouge.fr" xmlns:xlink="http://www.w3.org/1999/xlink" id="svg2" viewBox="0 0 3000 3000" version="1.1">
  <rect id="rect5" height="3e3" width="3e3" y="0" x="0" fill="#005400"/>
  <path id="path7" fill="#fff" d="m1520.9 2453.2c-502.69 0-910.31 244.27-915.91 546.77h1832.2c-5.5781-302.51-413.58-546.77-916.24-546.77z"/>
  <path id="path47" fill="#9e592b" d="m1406.1 2506.3c-12.776 0.1811-28.968 3.6844-49.625 10.975-97.718 34.482 2.09 318 82.55 482.75h24.825c-20.616-120.26 37.716-194.57 11.475-299.2-27.625-110.13-4.1288-195.45-69.225-194.52z"/>
  <path id="path9" d="m1430.7 429.19c-191.91 3.1172-378.8 60.586-526.97 163.34-211.9 146.93-352.12 372.73-411.26 663.21-2.7188 13.359-6.1641 31.734-8.0625 40.641-1.875 8.9062-5.6953 31.594-8.0625 50.531-2.3438 18.961-6.3516 50.273-9.1406 69.211-6.5625 44.484-6.6094 206.84 0 247.2 20.203 123.49 42.141 213.66 88.617 364.76 14.133 45.914 17.414 56.93 24.914 84.961 2.0859 7.8047 9.6328 35.156 16.477 60.797 44.016 164.95 47.883 278.65 13.898 386.34-24.844 78.844-64.172 139.27-141.7 216.42-55.61 55.4-118.4 139.1-159.34 223.4h374.25c9.7734-22.594 17.602-46.219 26.367-63.727 56.18-112.08 113.16-190.88 193.73-268.08 106.1-101.62 225.54-162.59 368.04-188.23 39.141-7.0547 161.65-8.2969 200.32-1.8281 210.98 35.226 391.29 147.75 535.41 333.98 42.516 54.938 80.789 119.58 115.36 187.88h787.71c-26.555-57.562-71.695-129.66-126.21-207.28-29.953-42.633-69.68-106.95-91.312-132.56-68.719-81.445-126.59-120.8-168.21-175.9-86.484-79.945-76.219-96.539-74.227-208.99 36.023-179.16 46.289-513.47 36.023-782.72 3.7735-78.609-0.4922-119.48-4.5234-161.02-14.227-146.77-42.07-234.87-99.609-349.73-45.586-90.961-102.94-169.41-178.36-244.62-84.328-84.141-166.08-142.57-275.74-196.66-133.59-65.906-260.79-99.375-416.02-109.5-27.539-1.7812-54.984-2.2734-82.406-1.8281z"/>
  <path id="path11" d="m1813.5 893.53c14.133 1.2188 28.195 3.9609 42.844 7.7109 148.59 37.992 275.55 201.91 310.92 401.37 10.383 58.641 11.273 147.89 1.8281 200.67-23.976 133.95-93.328 232.1-190.05 269.53-39.609 15.328-98.062 19.476-140.27 9.8906-100.69-22.875-200.65-111.8-261.47-232.92-29.578-58.875-58.805-155.11-58.594-192.61-4.4063-27.047-4.8984-30.07-7.3359-69.211-3.7266-13.898 1.8984-87.75 13.547-138.07 25.453-109.66 85.148-193.43 165.16-232.17 40.547-19.641 81.047-27.773 123.42-24.188z"/>
  <path id="path13" fill="#fff" d="m1179.2 893.53c42.375-3.5859 82.875 4.5469 123.42 24.188 79.922 38.672 139.45 122.51 164.79 231.8 17.203 85.758 11.25 207.26 4.4063 227.79-9.1875 69.914-48.984 170.2-93.398 235.48-60.562 89.039-145.59 152.84-226.66 169.92-72.328 15.258-140.2 0.3281-198.49-43.57-87.75-66.117-136.2-184.27-136.24-331.43-0.0234-238.97 139.5-460.57 318.98-506.46 14.648-3.75 29.086-6.4922 43.195-7.7109z"/>
  <path id="path15" fill="#333" d="m1521.2 563.23s-51.422 1268.6-19.031 1801.8c178.76 29.836 260.58 70.336 438.7 215.7 93.234 76.055 266.2 272.65 332.91 419.32h502.43c-46.852-72.281-139.55-212.02-161.86-238.41-28.476-33.727-67.008-78.984-85.336-100.71-58.219-69-145.27-167.18-180.54-213.87-37.336-36.891-33.586-62.859-32.226-112.43 3.3515-132.66 16.312-651.63 26.742-868.29 3.211-66.609 3.3985-93.703 0-128.91-12.047-124.36-35.836-210.28-84.609-307.62-38.602-77.086-86.977-143.53-150.87-207.28-71.461-71.297-140.72-120.8-233.65-166.62-113.2-55.828-352.66-92.648-352.66-92.648z"/>
  <path id="path17" fill="#fff" d="m1878.5 1782.3c-81.539-17.203-167.11-81.305-228.02-170.86-44.672-65.648-84.609-166.41-93.844-236.72-6.8907-20.648-12.984-142.92 4.289-229.17 25.5-109.92 85.617-194.41 165.98-233.32 54.375-26.297 108.38-31.664 167.34-16.57 416.88 90.492 431.16 973.97-15.75 886.64z"/>
  <path id="path19" fill="#ec0" d="m1417.3 1741-13.922 14.812c-27.68 29.344-87.352 49.359-179.09 59.906-100.78 11.578-228.91 5.3203-290.3-14.18-30.375-9.6563-38.602-7.9922-45.867 9.4922-22.898 55.195 24.984 159.73 137.55 300.3 71.391 89.156 177.54 196.31 243.94 246.35 25.852 19.477 57.375 34.852 86.766 42.305 23.906 6.0469 165.54 4.875 198.98-1.6406 11.133-2.1797 31.898-6.1406 46.102-8.8828 77.062-14.906 142.03-52.219 255.84-146.79 102.82-85.43 228.89-226.1 262.55-292.95 24.633-48.914 34.828-122.58 20.016-145.15-8.4844-12.961-12.024-13.148-44.578-2.7891-31.547 10.031-139.05 20.25-211.9 20.25-30.141 0-78.844-2.8125-108.28-6.3281-85.781-10.219-135.12-27.774-164.02-58.524l-15.211-16.195zm36.867 32.414c22.359 0 34.852 29.086 26.227 61.172-14.836 55.031-50.695 81.656-72.586 53.836-23.953-30.469 10.078-115.01 46.359-115.01zm84.867 0c24.891 0 54.844 47.367 54.844 86.766 0 33.938-25.781 49.57-50.156 30.398-20.086-15.797-37.781-62.578-33.07-87.656 3.2109-17.062 15.188-29.508 28.383-29.508z"/>
  <path id="path21" d="m1290.7 1429.1c0 100.97-75.188 182.81-167.91 182.81-92.742 0-167.91-81.844-167.91-182.81 0-100.99 75.164-182.84 167.91-182.84 92.719 0 167.91 81.844 167.91 182.84z"/>
  <path id="path23" fill="#fff" d="m1251.4 1357.5c0 44.25-32.953 80.109-73.57 80.109-40.641 0-73.594-35.859-73.594-80.109s32.953-80.109 73.594-80.109c40.617 0 73.57 35.859 73.57 80.109z"/>
  <path id="path25" d="m2042.7 1430.4c0 100.99-75.164 182.84-167.91 182.84-92.719 0-167.91-81.844-167.91-182.84 0-100.97 75.188-182.81 167.91-182.81 92.742 0 167.91 81.844 167.91 182.81z"/>
  <path id="path27" fill="#fff" d="m2006.2 1357.5c0 44.25-32.93 80.109-73.57 80.109-40.617 0-73.57-35.859-73.57-80.109s32.953-80.109 73.57-80.109c40.641 0 73.57 35.859 73.57 80.109z"/>
  <path id="path29" fill="#dea885" d="m2987.7 1064c0 111.91-661.15 202.66-1476.7 202.66-815.58 0-1476.7-90.75-1476.7-202.66s661.15-202.66 1476.7-202.66c815.58 0 1476.7 90.75 1476.7 202.66z"/>
  <path id="path31" fill="#dea885" d="m2403.6 919.24c0-399.45-414.73-723.26-926.32-723.26-504.98 0-916.92 315.77-926.18 709.99"/>
  <path id="path33" fill="#d18c5e" d="m1512 901.66v325.73h15.258c714.89 0 1294.5-72.891 1294.5-162.87 0-89.977-579.56-162.87-1294.5-162.87h-15.258z"/>
  <path id="path35" fill="#dea885" d="m1683.4 222.49c0 43.453-91.008 78.68-203.23 78.68-112.24 0-203.23-35.227-203.23-78.68 0-43.43 90.984-78.656 203.23-78.656 112.22 0 203.23 35.227 203.23 78.656z"/>
  <path id="path37" fill="#d18c5e" d="m1514.6 173.98v97.359c65.953-1.6172 118.15-22.758 118.15-48.68 0-25.945-52.195-47.086-118.15-48.68z"/>
  <path id="path39" fill="#d18c5e" d="m1514.6 269.81v576.98l797.25 5.4375c0-320.72-356.55-580.9-797.25-582.42z"/>
  <path id="path41" fill="#d18c5e" d="m1514.6 820.92h799.78v144.21h-799.78z"/>
  <path id="path43" fill="#78421e" d="m546.99 808.9c571.37 52.195 1167.9 69.234 1861.7 4.875 0 39.68 7.4343 37.969 7.4343 77.648-490.9 29.203-1004.6 98.672-1874.1 12.188 0-39.68 4.9562-55.031 4.9562-94.711z"/>
  <path id="path45" fill="#9e592b" d="m608.77 2387.7c552.49 135.8 1171.6 54.188 1865.2-30.07l116.88 172.97c-633.84 9.3515-1338.4-13.688-1996.7 69.305z"/>
  <path id="path49" fill="#9e592b" d="m1390 2462.2c-105.98 81.211 227.95 454.29 316.8 514.15-145.05-150.47-74.812-261.28-146.98-376.36-72.188-115.05-63.82-219-169.83-137.79z"/>
  <path id="path51" fill="#9e592b" d="m1441.1 2736.9c-23.836 2.3906-209.7-255.84-199.88-277.69 9.8438-21.82 326.44-53.672 340.43-34.242 13.992 19.453-116.72 309.54-140.55 311.93z"/>
  <path id="path53" fill="#4f2b14" d="m2437.3 2382c-228.63 28.125-446.7 55.617-654.87 69.938v70.547c254.39-4.0781 506.27-1.5937 745.15-5.1797z"/>
  <path id="path55" fill="#4f2b14" d="m1427.3 2483.3c-64.805 67.758 152.11 366.26 209.02 413.6-93.984-120.23-52.172-211.52-99.774-304.08-47.578-92.531-44.438-177.28-109.24-109.52z"/>
  <path id="path57" fill="#4f2b14" d="m1878.3 2442.9c-58.477 0.4453-280.34 16.617-441.66 30.774v17.578h457.03c4.5937-9.961 7.9687-19.594 8.7891-27.469 1.1953-11.297-1.8985-19.266-11.719-20.508-2.2969-0.2812-6.5859-0.3984-12.445-0.3515z"/>
  <path id="path59" fill="#4f2b14" d="m1495.1 2469.6h336.05v53.578h-336.05z"/>
  <path id="path61" fill="#4f2b14" d="m1399.8 2746.3c13.43 0.2578 30.047 1.289 47.086 2.6953v189.05c-20.297-19.711-89.953-177-81.984-188.16 2.1328-2.9765 15.586-3.9375 34.898-3.5859z"/>
  <g id="g3154" transform="translate(0,4.9435)">
    <path id="path63" fill="#999" d="m2648.9 2626.4c280.27-361.92 375.05-757.88 211.69-884.39-162.07-125.51-517.69 61.266-797.55 418.88"/>
    <path id="path65" fill="#7f7f7f" d="m2420.3 2442.1c189.77-245.06 317.11-464.23 284.44-489.52-32.414-25.102-210.28 150.09-398.88 392.88"/>
    <path id="path67" fill="#9e592b" d="m2312.6 2334.3 113.77 88.102-442.05 572.95-177-0.2705z"/>
    <path id="path69" fill="#78421e" d="m2352.6 2427.1 36.422 28.195-418.28 539.56-53.142 0.1845z"/>
    <path id="path71" fill="#b3b3b3" d="m2874.3 1827.8-145.24 187.55c-11.226 55.102-113.3 217.2-252.98 397.57l-33.164-28.055-2.0625 2.6484 207 165c232.05-299.67 329.23-616.27 226.45-724.71z"/>
  </g>
  <metadata>
    <rdf:RDF>
      <cc:Work>
        <dc:format>image/svg+xml</dc:format>
        <dc:type rdf:resource="http://purl.org/dc/dcmitype/StillImage"/>
        <cc:license rdf:resource="http://creativecommons.org/licenses/publicdomain/"/>
        <dc:publisher>
          <cc:Agent rdf:about="http://openclipart.org/">
            <dc:title>Openclipart</dc:title>
          </cc:Agent>
        </dc:publisher>
        <dc:title>archeologist penguin</dc:title>
        <dc:date>2013-05-23T01:53:14</dc:date>
        <dc:description>A penguin in an outfit reminds us of tux from Linux fame.</dc:description>
        <dc:source>https://openclipart.org/detail/178455/archeologist-by-bartm-178455</dc:source>
        <dc:creator>
          <cc:Agent>
            <dc:title>BartM</dc:title>
          </cc:Agent>
        </dc:creator>
        <dc:subject>
          <rdf:Bag>
            <rdf:li>animal</rdf:li>
            <rdf:li>archeologist</rdf:li>
            <rdf:li>color</rdf:li>
            <rdf:li>linux</rdf:li>
            <rdf:li>penguin</rdf:li>
            <rdf:li>pet</rdf:li>
            <rdf:li>tux</rdf:li>
          </rdf:Bag>
        </dc:subject>
      </cc:Work>
      <cc:License rdf:about="http://creativecommons.org/licenses/publicdomain/">
        <cc:permits rdf:resource="http://creativecommons.org/ns#Reproduction"/>
        <cc:permits rdf:resource="http://creativecommons.org/ns#Distribution"/>
        <cc:permits rdf:resource="http://creativecommons.org/ns#DerivativeWorks"/>
      </cc:License>
    </rdf:RDF>
  </metadata>
</svg>