<?xml version="1.0" encoding="UTF-8"?>
<svg xmlns:rdf="http://www.w3.org/1999/02/22-rdf-syntax-ns#" xmlns="http://www.w3.org/2000/svg" xmlns:cc="http://creativecommons.org/ns#" xmlns:dc="http://purl.org/dc/elements/1.1/" xmlns:svg="http://www.w3.org/2000/svg" xmlns:inkscape="http://www.inkscape.org/namespaces/inkscape" xmlns:sodipodi="http://sodipodi.sourceforge.net/DTD/sodipodi-0.dtd" xmlns:ns1="http://sozi.baierouge.fr" xmlns:xlink="http://www.w3.org/1999/xlink" id="svg2" viewBox="0 0 3000 3000" version="1.1">
  <rect id="rect5" height="3e3" width="3e3" y="0" x="0" fill="#8f8a6e"/>
  <g id="g3058" transform="translate(0,-4.4063)">
    <path id="path7" fill="#fff" d="m1520.9 2457.6c-502.69 0-910.31 244.27-915.91 546.77h1832.2c-5.5781-302.51-413.58-546.77-916.24-546.77z"/>
    <path id="path9" d="m1435.5 433.59c-191.91 3.1172-378.8 60.586-526.97 163.34-211.9 146.93-352.12 372.73-411.26 663.21-2.7188 13.359-6.1875 31.734-8.0625 40.641-1.875 8.9062-5.7188 31.594-8.0625 50.531-2.3438 18.961-6.3516 50.273-9.1406 69.211-6.5625 44.484-6.6094 206.84 0 247.2 20.203 123.49 42.117 213.66 88.617 364.76 14.133 45.914 17.414 56.93 24.891 84.961 2.0859 7.8047 9.6562 35.156 16.5 60.797 44.016 164.95 47.859 278.65 13.898 386.34-24.867 78.844-64.172 139.27-141.73 216.42-55.57 55.453-118.34 139.12-159.28 223.41h374.25c9.7734-22.594 17.602-46.219 26.367-63.727 56.18-112.08 113.13-190.88 193.73-268.08 106.08-101.62 225.54-162.59 368.04-188.23 39.141-7.0547 161.62-8.2969 200.32-1.8281 210.96 35.226 391.27 147.75 535.41 333.98 42.516 54.938 80.789 119.58 115.34 187.88h787.73c-26.555-57.562-71.719-129.66-126.23-207.28-29.93-42.633-69.656-106.95-91.289-132.56-68.719-81.445-126.59-120.8-168.21-175.9-86.508-79.945-76.219-96.539-74.227-208.99 36-179.16 46.289-513.47 36-782.72 3.7969-78.609-0.4922-119.48-4.5-161.02-14.227-146.77-42.07-234.87-99.609-349.73-45.586-90.961-102.96-169.41-178.36-244.62-84.328-84.141-166.08-142.57-275.74-196.66-133.62-65.906-260.79-99.375-416.02-109.5-27.539-1.7812-54.984-2.2734-82.406-1.8281z"/>
    <path id="path11" d="m1813.5 897.94c14.133 1.2188 28.195 3.9609 42.844 7.7109 148.59 37.992 275.55 201.91 310.92 401.37 10.383 58.641 11.273 147.89 1.8281 200.67-23.976 133.95-93.328 232.1-190.05 269.53-39.609 15.328-98.062 19.476-140.27 9.8906-100.69-22.875-200.65-111.8-261.47-232.92-29.578-58.875-58.805-155.11-58.594-192.61-4.4063-27.047-4.8984-30.07-7.3359-69.211-3.7266-13.898 1.8984-87.75 13.547-138.07 25.453-109.66 85.148-193.43 165.16-232.17 40.547-19.641 81.047-27.773 123.42-24.188z"/>
    <path id="path13" fill="#fff" d="m1179.2 897.94c42.375-3.5859 82.875 4.5469 123.42 24.188 79.922 38.672 139.45 122.51 164.79 231.8 17.203 85.758 11.25 207.26 4.4063 227.79-9.1875 69.914-48.984 170.2-93.398 235.48-60.562 89.039-145.59 152.84-226.66 169.92-72.328 15.258-140.2 0.3281-198.49-43.57-87.75-66.117-136.2-184.27-136.24-331.43-0.0234-238.97 139.5-460.57 318.98-506.46 14.648-3.75 29.086-6.4922 43.195-7.7109z"/>
    <path id="path15" fill="#333" d="m1521.2 567.63s-51.422 1268.6-19.031 1801.8c178.76 29.836 260.58 70.336 438.7 215.7 93.234 76.055 266.2 272.65 332.91 419.32h502.43c-46.8-72.3-139.5-212-161.8-238.4-28.476-33.727-67.008-78.984-85.336-100.71-58.219-69-145.27-167.18-180.54-213.87-37.336-36.891-33.586-62.859-32.226-112.43 3.3515-132.66 16.312-651.63 26.742-868.29 3.211-66.609 3.3985-93.703 0-128.91-12.047-124.36-35.836-210.28-84.609-307.62-38.602-77.086-86.977-143.53-150.87-207.28-71.461-71.297-140.72-120.8-233.65-166.62-113.2-55.828-352.66-92.648-352.66-92.648z"/>
    <path id="path17" fill="#fff" d="m1878.5 1786.7c-81.539-17.203-167.11-81.305-228.02-170.86-44.672-65.648-84.609-166.41-93.844-236.72-6.8907-20.648-12.984-142.92 4.289-229.17 25.5-109.92 85.617-194.41 165.98-233.32 54.375-26.297 108.38-31.664 167.34-16.57 416.88 90.492 431.16 973.97-15.75 886.64z"/>
    <path id="path19" fill="#ec0" d="m1427.1 1764.9-13.922 14.812c-27.703 29.344-87.352 49.359-179.11 59.906-100.76 11.602-228.89 5.3204-290.3-14.18-30.352-9.6329-38.578-7.9922-45.844 9.4921-22.898 55.219 24.984 159.73 137.55 300.3 71.391 89.156 177.52 196.34 243.94 246.35 25.852 19.477 57.375 34.852 86.766 42.305 23.906 6.0703 165.52 4.875 198.96-1.6406 11.156-2.1797 31.922-6.1172 46.102-8.8829 77.086-14.883 142.05-52.219 255.87-146.79 102.8-85.43 228.87-226.08 262.55-292.95 24.633-48.891 34.805-122.58 20.016-145.15-8.4844-12.938-12.047-13.148-44.578-2.789-31.547 10.031-139.05 20.25-211.9 20.25-30.164 0-78.844-2.8125-108.3-6.3282-85.758-10.195-135.09-27.773-164.02-58.5l-15.188-16.219zm36.867 32.414c22.336 0 34.852 29.086 26.203 61.172-14.812 55.031-50.695 81.656-72.562 53.836-23.977-30.469 10.078-115.01 46.359-115.01zm84.844 0c24.914 0 54.844 47.391 54.844 86.766 0 33.938-25.781 49.57-50.156 30.398-20.086-15.797-37.758-62.555-33.047-87.656 3.1875-17.062 15.188-29.508 28.359-29.508z"/>
    <path id="path21" d="m1290.7 1527.3c0 100.97-75.188 182.81-167.91 182.81-92.742 0-167.91-81.844-167.91-182.81 0-100.99 75.164-182.84 167.91-182.84 92.719 0 167.91 81.844 167.91 182.84z"/>
    <path id="path23" fill="#fff" d="m1251.4 1455.7c0 44.25-32.953 80.109-73.57 80.109-40.641 0-73.594-35.859-73.594-80.109s32.953-80.109 73.594-80.109c40.617 0 73.57 35.859 73.57 80.109z"/>
    <path id="path25" d="m2042.7 1528.5c0 100.99-75.164 182.84-167.91 182.84-92.719 0-167.91-81.844-167.91-182.84 0-100.97 75.188-182.81 167.91-182.81 92.742 0 167.91 81.844 167.91 182.81z"/>
    <path id="path27" fill="#fff" d="m2006.2 1455.7c0 44.25-32.93 80.109-73.57 80.109-40.617 0-73.57-35.859-73.57-80.109s32.953-80.109 73.57-80.109c40.641 0 73.57 35.859 73.57 80.109z"/>
    <path id="path29" stroke="#000" stroke-width="18.806" d="m527.84 2455.9h1944.3v509.48h-1944.3z"/>
    <path id="path31" stroke="#fff" stroke-width="17.321" d="m564.28 2486.1h1871.4v449.06h-1871.4z"/>
    <path id="path33" fill="#fff" d="m709.38 2860.5c-20.438 0-38.836-7.2422-55.125-21.75-16.312-14.484-28.758-33.305-37.312-56.438-8.5781-23.18-12.844-48.188-12.844-75 0-19.992 2.5547-39.281 7.6875-57.844 5.1094-18.609 12.141-34.992 21.094-49.125 8.9766-14.109 20.156-25.453 33.469-34.031 13.359-8.5547 27.703-12.844 43.031-12.844 20.227 0 38.484 7.2891 54.75 21.844 16.242 14.508 28.688 33.422 37.312 56.719 8.6016 23.32 12.938 48.422 12.938 75.281 0 19.945-2.5781 39.211-7.6875 57.75-5.1328 18.516-12.211 34.805-21.188 48.844-8.9531 14.062-20.086 25.359-33.375 33.844-13.266 8.5078-27.516 12.75-42.75 12.75zm-73.312-153.19c0 14.391 1.4062 28.078 4.2188 41.062 2.7891 13.008 6.6562 24.398 11.531 34.125 4.8516 9.7031 10.43 18.164 16.688 25.406 6.2344 7.1953 12.867 12.633 19.875 16.312 6.9844 3.7032 13.992 5.5313 21 5.5313 6.7266 0 13.594-1.8047 20.531-5.4375 6.9141-3.6094 13.547-9 19.875-16.125 6.3516-7.1719 12-15.609 16.875-25.312 4.9219-9.6797 8.8359-21.047 11.719-34.125 2.9297-13.102 4.4062-26.93 4.4062-41.438 0-17.93-2.2266-34.734-6.6562-50.438-4.4531-15.727-10.242-28.781-17.344-39.094-7.0781-10.289-14.93-18.398-23.531-24.281-8.625-5.9297-17.273-8.9063-25.875-8.9063-8.625 0-17.273 2.9532-25.875 8.8125-8.625 5.8125-16.477 13.852-23.531 24.094-7.0781 10.266-12.82 23.297-17.25 39.094-4.4531 15.75-6.6562 32.672-6.6562 50.719z"/>
    <path id="path35" fill="#fff" d="m947.92 2669.2c-13.5 0-26.109 3.8672-37.781 11.531-11.625 7.6875-21.352 18.774-29.156 33.188h-31.781l13.781-157.88h164.53l-10.312 31.125h-124.5l-6.2812 72.562c18.305-13.617 38.812-20.438 61.5-20.438 19.617 0 37.641 5.0391 54.094 15.094 16.477 10.008 29.367 23.508 38.625 40.5 9.3047 17.016 13.969 35.484 13.969 55.406 0 19.945-4.6641 38.414-13.969 55.406-9.2578 16.945-22.148 30.445-38.625 40.5-16.453 10.078-34.477 15.094-54.094 15.094-26.578 0-49.758-9.0468-69.562-27.188-19.828-18.117-31.617-40.523-35.344-67.219l-1.5-8.3438h32.156l1.0312 6.0938c3.4922 19.008 12.094 34.711 25.781 47.062 13.664 12.328 29.484 18.469 47.438 18.469 20.297 0 37.828-7.7343 52.594-23.25 14.742-15.492 22.125-34.5 22.125-57 0-22.664-7.3828-41.812-22.125-57.375-14.766-15.539-32.297-23.344-52.594-23.344z"/>
    <path id="path37" fill="#fff" d="m1170.8 2608.6-27.281 15.844-16.406-26.906 76.031-44.062v304.41h-32.344z"/>
    <path id="path39" fill="#fff" d="m1427 2860.5c-20.438 0-38.836-7.2422-55.125-21.75-16.312-14.484-28.758-33.305-37.312-56.438-8.5781-23.18-12.844-48.188-12.844-75 0-19.992 2.5547-39.281 7.6875-57.844 5.1094-18.609 12.141-34.992 21.094-49.125 8.9766-14.109 20.156-25.453 33.469-34.031 13.359-8.5547 27.703-12.844 43.031-12.844 20.227 0 38.484 7.2891 54.75 21.844 16.242 14.508 28.688 33.422 37.312 56.719 8.6016 23.32 12.938 48.422 12.938 75.281 0 19.945-2.5781 39.211-7.6875 57.75-5.1328 18.516-12.211 34.805-21.188 48.844-8.9531 14.062-20.086 25.359-33.375 33.844-13.266 8.5078-27.516 12.75-42.75 12.75zm-73.312-153.19c0 14.391 1.4063 28.078 4.2188 41.062 2.789 13.008 6.6562 24.398 11.531 34.125 4.8516 9.7031 10.43 18.164 16.688 25.406 6.2344 7.1953 12.867 12.633 19.875 16.312 6.9844 3.7032 13.992 5.5313 21 5.5313 6.7266 0 13.594-1.8047 20.531-5.4375 6.914-3.6094 13.547-9 19.875-16.125 6.3515-7.1719 12-15.609 16.875-25.312 4.9219-9.6797 8.8359-21.047 11.719-34.125 2.9297-13.102 4.4063-26.93 4.4063-41.438 0-17.93-2.2266-34.734-6.6563-50.438-4.4531-15.727-10.242-28.781-17.344-39.094-7.0781-10.289-14.93-18.398-23.531-24.281-8.625-5.9297-17.273-8.9063-25.875-8.9063-8.625 0-17.273 2.9532-25.875 8.8125-8.625 5.8125-16.476 13.852-23.531 24.094-7.0781 10.266-12.82 23.297-17.25 39.094-4.4531 15.75-6.6563 32.672-6.6563 50.719z"/>
    <path id="path41" fill="#fff" d="m1649.3 2608.6-27.281 15.844-16.406-26.906 76.031-44.062v304.41h-32.344z"/>
    <path id="path43" fill="#fff" d="m1830.3 2665.2c0 22.383 7.3359 41.391 22.031 57 14.672 15.633 32.086 23.438 52.219 23.438 20.297 0 37.828-7.8047 52.594-23.438 14.742-15.609 22.125-34.617 22.125-57 0-22.617-7.3828-41.766-22.125-57.469-14.766-15.727-32.297-23.625-52.594-23.625-20.133 0-37.547 7.8984-52.219 23.625-14.695 15.703-22.031 34.852-22.031 57.469zm180.94 0c0 9.5625-1.1485 18.891-3.375 27.938-2.2032 9-5.0391 17.274-8.5313 24.75-3.5156 7.4532-8.7656 16.524-15.75 27.188-7.0078 10.641-13.828 20.461-20.438 29.438-6.6328 8.9532-15.82 21.492-27.562 37.594-11.695 16.078-22.453 31.336-32.25 45.75h-38.625l57.562-83.25c-5.5078 0.8203-11.414 1.2187-17.719 1.2187-19.57 0-37.547-5.0156-53.906-15.094-16.383-10.055-29.226-23.531-38.531-40.406-9.3282-16.922-13.969-35.297-13.969-55.125 0-20.039 4.6406-38.625 13.969-55.688 9.3047-17.039 22.148-30.586 38.531-40.594 16.359-10.055 34.336-15.094 53.906-15.094 14.789 0 28.805 2.9766 42 8.9063 13.172 5.9531 24.492 13.945 33.938 24 9.4218 10.008 16.898 21.867 22.406 35.531 5.5547 13.688 8.3438 28.008 8.3438 42.938z"/>
    <path id="path45" fill="#fff" d="m2069.4 2665.2c0 22.383 7.3359 41.391 22.031 57 14.672 15.633 32.086 23.438 52.219 23.438 20.297 0 37.828-7.8047 52.594-23.438 14.742-15.609 22.125-34.617 22.125-57 0-22.617-7.3828-41.766-22.125-57.469-14.766-15.727-32.297-23.625-52.594-23.625-20.133 0-37.547 7.8984-52.219 23.625-14.695 15.703-22.031 34.852-22.031 57.469zm180.94 0c0 9.5625-1.1485 18.891-3.375 27.938-2.2032 9-5.0391 17.274-8.5313 24.75-3.5156 7.4532-8.7656 16.524-15.75 27.188-7.0078 10.641-13.828 20.461-20.438 29.438-6.6328 8.9532-15.82 21.492-27.562 37.594-11.695 16.078-22.453 31.336-32.25 45.75h-38.625l57.562-83.25c-5.5078 0.8203-11.414 1.2187-17.719 1.2187-19.57 0-37.547-5.0156-53.906-15.094-16.383-10.055-29.226-23.531-38.531-40.406-9.3282-16.922-13.969-35.297-13.969-55.125 0-20.039 4.6406-38.625 13.969-55.688 9.3047-17.039 22.148-30.586 38.531-40.594 16.359-10.055 34.336-15.094 53.906-15.094 14.789 0 28.805 2.9766 42 8.9063 13.172 5.9531 24.492 13.945 33.938 24 9.4218 10.008 16.898 21.867 22.406 35.531 5.5547 13.688 8.3438 28.008 8.3438 42.938z"/>
    <path id="path47" fill="#fff" d="m2366.4 2608.6-27.281 15.844-16.406-26.906 76.031-44.062v304.41h-32.344z"/>
    <path id="path49" fill="#333" d="m1479 1409.7c7.5938-22.781 23.203-273.09 4.1485-368.23-28.1-121.2-94.4-214.41-183.1-257.33-59.9-29.01-119.5-34.92-184.5-18.28-199.14 50.91-354.2 297.01-354.13 562.11 312.02-10.758 479.46 92.274 717.59 81.727z"/>
    <path id="path51" d="m1511.3 1405.3c-7.5703-22.805-14.32-268.66 4.7578-363.8 28.102-121.22 94.406-214.43 183.07-257.34 59.953-29.016 119.53-34.922 184.57-18.281 199.1 50.906 354.14 297.05 354.09 562.12-312.05-10.758-488.37 87.82-726.49 77.297z"/>
  </g>
  <metadata>
    <rdf:RDF>
      <cc:Work>
        <dc:format>image/svg+xml</dc:format>
        <dc:type rdf:resource="http://purl.org/dc/dcmitype/StillImage"/>
        <cc:license rdf:resource="http://creativecommons.org/licenses/publicdomain/"/>
        <dc:publisher>
          <cc:Agent rdf:about="http://openclipart.org/">
            <dc:title>Openclipart</dc:title>
          </cc:Agent>
        </dc:publisher>
        <dc:title>mugshot penguin</dc:title>
        <dc:date>2013-05-23T02:03:36</dc:date>
        <dc:description>A penguin in an outfit reminds us of tux from Linux fame.</dc:description>
        <dc:source>https://openclipart.org/detail/178488/mugshot-by-bartm-178488</dc:source>
        <dc:creator>
          <cc:Agent>
            <dc:title>BartM</dc:title>
          </cc:Agent>
        </dc:creator>
        <dc:subject>
          <rdf:Bag>
            <rdf:li>animal</rdf:li>
            <rdf:li>color</rdf:li>
            <rdf:li>linux</rdf:li>
            <rdf:li>mugshot</rdf:li>
            <rdf:li>penguin</rdf:li>
            <rdf:li>pet</rdf:li>
            <rdf:li>tux</rdf:li>
          </rdf:Bag>
        </dc:subject>
      </cc:Work>
      <cc:License rdf:about="http://creativecommons.org/licenses/publicdomain/">
        <cc:permits rdf:resource="http://creativecommons.org/ns#Reproduction"/>
        <cc:permits rdf:resource="http://creativecommons.org/ns#Distribution"/>
        <cc:permits rdf:resource="http://creativecommons.org/ns#DerivativeWorks"/>
      </cc:License>
    </rdf:RDF>
  </metadata>
</svg>