<?xml version="1.0" encoding="UTF-8"?>
<svg xmlns:rdf="http://www.w3.org/1999/02/22-rdf-syntax-ns#" xmlns="http://www.w3.org/2000/svg" xmlns:cc="http://creativecommons.org/ns#" xmlns:dc="http://purl.org/dc/elements/1.1/" xmlns:svg="http://www.w3.org/2000/svg" xmlns:inkscape="http://www.inkscape.org/namespaces/inkscape" xmlns:sodipodi="http://sodipodi.sourceforge.net/DTD/sodipodi-0.dtd" xmlns:ns1="http://sozi.baierouge.fr" xmlns:xlink="http://www.w3.org/1999/xlink" id="svg2" viewBox="0 0 3000 3000" version="1.1">
  <rect id="rect5" height="3e3" width="3e3" y="0" x="0" fill="#287dff"/>
  <g id="g3046" transform="translate(0,-4.4063)">
    <path id="path7" fill="#fff" d="m1520.9 2457.6c-502.69 0-910.31 244.27-915.91 546.77h1832.2c-5.5781-302.51-413.58-546.77-916.24-546.77z"/>
    <path id="path9" d="m1430.7 433.59c-191.91 3.1172-378.8 60.586-526.97 163.34-211.9 146.93-352.12 372.73-411.26 663.21-2.7188 13.359-6.1641 31.734-8.0625 40.641-1.875 8.9062-5.6953 31.594-8.0625 50.531-2.3438 18.961-6.3516 50.273-9.1406 69.211-6.5625 44.484-6.6094 206.84 0 247.2 20.203 123.49 42.141 213.66 88.617 364.76 14.133 45.914 17.414 56.93 24.914 84.961 2.0859 7.8047 9.6328 35.156 16.477 60.797 44.016 164.95 47.883 278.65 13.898 386.34-24.844 78.844-64.172 139.27-141.7 216.42-55.57 55.453-118.36 139.12-159.3 223.41h374.25c9.7734-22.594 17.602-46.219 26.367-63.727 56.18-112.08 113.16-190.88 193.73-268.08 106.1-101.62 225.54-162.59 368.04-188.23 39.141-7.0547 161.65-8.2969 200.32-1.8281 210.98 35.226 391.29 147.75 535.41 333.98 42.516 54.938 80.789 119.58 115.36 187.88h787.71c-26.555-57.562-71.695-129.66-126.21-207.28-29.953-42.633-69.68-106.95-91.312-132.56-68.719-81.445-126.59-120.8-168.21-175.9-86.484-79.945-76.219-96.539-74.227-208.99 36.023-179.16 46.289-513.47 36.023-782.72 3.7735-78.609-0.4922-119.48-4.5234-161.02-14.227-146.77-42.07-234.87-99.609-349.73-45.586-90.961-102.94-169.41-178.36-244.62-84.328-84.141-166.08-142.57-275.74-196.66-133.59-65.906-260.79-99.375-416.02-109.5-27.539-1.7812-54.984-2.2734-82.406-1.8281z"/>
    <path id="path11" d="m1813.5 897.94c14.133 1.2188 28.195 3.9609 42.844 7.7109 148.59 37.992 275.55 201.91 310.92 401.37 10.383 58.641 11.273 147.89 1.8281 200.67-23.976 133.95-93.328 232.1-190.05 269.53-39.609 15.328-98.062 19.476-140.27 9.8906-100.69-22.875-200.65-111.8-261.47-232.92-29.578-58.875-58.805-155.11-58.594-192.61-4.4063-27.047-4.8984-30.07-7.3359-69.211-3.7266-13.898 1.8984-87.75 13.547-138.07 25.453-109.66 85.148-193.43 165.16-232.17 40.547-19.641 81.047-27.773 123.42-24.188z"/>
    <path id="path13" fill="#fff" d="m1179.2 897.94c42.375-3.5859 82.875 4.5469 123.42 24.188 79.922 38.672 139.45 122.51 164.79 231.8 17.203 85.758 11.25 207.26 4.4063 227.79-9.1875 69.914-48.984 170.2-93.398 235.48-60.562 89.039-145.59 152.84-226.66 169.92-72.328 15.258-140.2 0.3281-198.49-43.57-87.75-66.117-136.2-184.27-136.24-331.43-0.0234-238.97 139.5-460.57 318.98-506.46 14.648-3.75 29.086-6.4922 43.195-7.7109z"/>
    <path id="path15" fill="#333" d="m1521.2 567.63s-51.422 1268.6-19.031 1801.8c178.76 29.836 260.58 70.336 438.7 215.7 93.234 76.055 266.2 272.65 332.91 419.32h502.43c-46.8-72.3-139.5-212-161.8-238.4-28.476-33.727-67.008-78.984-85.336-100.71-58.219-69-145.27-167.18-180.54-213.87-37.336-36.891-33.586-62.859-32.226-112.43 3.3515-132.66 16.312-651.63 26.742-868.29 3.211-66.609 3.3985-93.703 0-128.91-12.047-124.36-35.836-210.28-84.609-307.62-38.602-77.086-86.977-143.53-150.87-207.28-71.461-71.297-140.72-120.8-233.65-166.62-113.2-55.828-352.66-92.648-352.66-92.648z"/>
    <path id="path17" fill="#fff" d="m1878.5 1786.7c-81.539-17.203-167.11-81.305-228.02-170.86-44.672-65.648-84.609-166.41-93.844-236.72-6.8907-20.648-12.984-142.92 4.289-229.17 25.5-109.92 85.617-194.41 165.98-233.32 54.375-26.297 108.38-31.664 167.34-16.57 416.88 90.492 431.16 973.97-15.75 886.64z"/>
    <path id="path19" fill="#ec0" d="m1417.3 1745.4-13.922 14.812c-27.68 29.344-87.352 49.359-179.09 59.906-100.78 11.578-228.91 5.3203-290.3-14.18-30.375-9.6563-38.602-7.9922-45.867 9.4922-22.898 55.195 24.984 159.73 137.55 300.3 71.391 89.156 177.54 196.31 243.94 246.35 25.852 19.477 57.375 34.852 86.766 42.305 23.906 6.0469 165.54 4.875 198.98-1.6406 11.133-2.1797 31.898-6.1406 46.102-8.8828 77.062-14.906 142.03-52.219 255.84-146.79 102.82-85.43 228.89-226.1 262.55-292.95 24.633-48.914 34.828-122.58 20.016-145.15-8.4844-12.961-12.024-13.148-44.578-2.7891-31.547 10.031-139.05 20.25-211.9 20.25-30.141 0-78.844-2.8125-108.28-6.3281-85.781-10.219-135.12-27.774-164.02-58.524l-15.211-16.195zm36.867 32.414c22.359 0 34.852 29.086 26.227 61.172-14.836 55.031-50.695 81.656-72.586 53.836-23.953-30.469 10.078-115.01 46.359-115.01zm84.867 0c24.891 0 54.844 47.367 54.844 86.766 0 33.938-25.781 49.57-50.156 30.398-20.086-15.797-37.781-62.578-33.07-87.656 3.2109-17.062 15.188-29.508 28.383-29.508z"/>
    <path id="path21" d="m1290.7 1433.6c0 100.97-75.188 182.81-167.91 182.81-92.742 0-167.91-81.844-167.91-182.81 0-100.99 75.164-182.84 167.91-182.84 92.719 0 167.91 81.844 167.91 182.84z"/>
    <path id="path23" fill="#fff" d="m1251.4 1362c0 44.25-32.953 80.109-73.57 80.109-40.641 0-73.594-35.859-73.594-80.109s32.953-80.109 73.594-80.109c40.617 0 73.57 35.859 73.57 80.109z"/>
    <path id="path25" d="m2042.7 1434.8c0 100.99-75.164 182.84-167.91 182.84-92.719 0-167.91-81.844-167.91-182.84 0-100.97 75.188-182.81 167.91-182.81 92.742 0 167.91 81.844 167.91 182.81z"/>
    <path id="path27" fill="#fff" d="m2006.2 1362c0 44.25-32.93 80.109-73.57 80.109-40.617 0-73.57-35.859-73.57-80.109s32.953-80.109 73.57-80.109c40.641 0 73.57 35.859 73.57 80.109z"/>
    <path id="path29" fill="#333" d="m1197.4 887.37c-5.5546 0.0703-11.086 0.28125-16.711 0.72656-14.977 1.1953-30.281 3.9375-45.844 7.6875-147.8 35.648-270.12 177.19-317.41 350.48l675.63 116.09c6.1875-35.274 9.8438-140.98-6.5859-218.27-26.906-109.29-90.047-193.12-174.84-231.8-37.641-17.18-75.305-25.5-114.23-24.914z"/>
    <path id="path31" d="m1832.3 882.49c5.8125 0.0937 11.578 0.28125 17.438 0.72656 15.633 1.2188 31.594 3.9609 47.812 7.7109 154.17 35.625 281.77 177.16 331.1 350.46l-704.77 116.09c-6.4219-35.274-10.242-140.98 6.8906-218.27 28.055-109.29 93.914-193.12 182.37-231.8 39.281-17.18 78.562-25.5 119.16-24.914z"/>
    <path id="path33" fill="#f00" d="m648.94 862.05c-73.102 113.95-125.67 247.29-156.38 398.09-2.7422 13.359-6.1875 31.734-8.0625 40.641-1.8984 8.9062-5.7188 31.594-8.0625 50.531-1.3594 10.922-3.2109 25.523-5.1328 39.914 5.3672 40.594 45.398 98.484 121.22 173.95 91.523 91.125 229.66 194.3 313.85 234.75 6.5391-0.2109 15.258 1.875 27.82 5.8594 61.406 19.5 189.28 25.875 290.04 14.273 91.758-10.547 151.41-30.328 179.09-59.695l13.922-15h178.71l15 16.102c28.922 30.726 78.305 48.398 164.06 58.594 29.461 3.5156 78.258 6.2344 108.4 6.2344 55.102 0 129.96-5.6719 176.88-12.82 3.1875-1.7813 6.1406-3.8672 9.8906-5.8594 82.102-43.805 216.23-153.98 303.96-249.75 68.672-75 106.27-132.66 112.78-173.23-1.1016-17.297-2.5313-33.234-4.0078-48.703-14.227-146.77-42.07-234.87-99.609-349.73-22.055-43.969-46.828-84.961-75.094-124.15zm1180.6 29.672c21-0.11719 42.352 2.7656 64.453 8.4141 416.88 90.492 431.16 973.92-15.727 886.59-81.562-17.18-166.88-81.469-227.79-171-44.672-65.672-84.516-166.29-93.75-236.58-6.8906-20.672-13.266-143.02 4.0313-229.27 25.476-109.9 85.875-194.37 166.27-233.27 33.961-16.43 67.523-24.703 102.52-24.891zm-634.64 5.4844c36.703-0.58594 72.188 7.7344 107.67 24.914 79.922 38.672 139.45 122.51 164.79 231.8 17.203 85.758 11.25 207.26 4.4063 227.79-9.1875 69.914-48.984 170.2-93.398 235.48-60.562 89.039-145.59 152.84-226.66 169.92-72.328 15.258-140.2 0.3281-198.49-43.57-87.75-66.117-136.2-184.27-136.24-331.43-0.0234-238.97 139.5-460.57 318.98-506.46 14.648-3.75 29.086-6.4922 43.195-7.7109 5.2969-0.44531 10.523-0.63281 15.75-0.72656z"/>
    <path id="path35" fill="#f00" d="m2400.6 1098.3c52.875 122.62 496.22-110.06 575.98-181.59-181.34 103.9-271.64 8.6953-400.85 50.578s-227.98 8.3906-175.12 131.02z"/>
    <path id="path37" fill="#f00" d="m2350.2 1068c88.195 100.27 437.84-258.14 491.55-350.84-140.32 154.9-255.63 92.297-365.53 172.1-109.9 79.83-214.2 78.52-126 178.74z"/>
    <path id="path39" fill="#d40000" d="m1538.8 891.73v820.31h61.898l13.922 15.023c26.836 28.523 72.68 45.07 152.34 54.562 27.328 3.2578 72.703 5.8594 100.71 5.8594 4.0547 0 8.8828-0.3047 13.172-0.375-0.8438-0.1641-1.711-0.1875-2.5547-0.375-81.562-17.18-166.88-81.469-227.79-171-44.672-65.672-84.516-166.29-93.75-236.58-6.8906-20.672-13.266-143.02 4.0313-229.27 25.476-109.9 85.875-194.37 166.27-233.27 33.961-16.43 67.523-24.703 102.52-24.891zm290.77 0c21-0.11719 42.352 2.7656 64.453 8.4141 343.43 74.555 413.79 687.05 177.98 851.81 76.055-48.047 180.3-136.03 251.6-213.87 63.773-69.656 98.672-123.45 104.72-161.13-1.0312-16.055-2.25-30.68-3.6562-45.047-13.195-136.31-39.188-218.13-92.648-324.82-20.461-40.852-43.336-78.984-69.586-115.36zm209.11 879.63c-3.7031 1.7344-7.5234 3.2344-11.344 4.7578 1.4531-0.2109 3.3515-0.5156 4.7578-0.7266 2.1328-1.1953 4.3125-2.6718 6.5859-4.0312z"/>
    <path id="path41" fill="#d40000" d="m2308.4 1085c54.094 84.023 507.84-75.422 589.48-124.45-185.6 71.203-278.02 5.9766-410.25 34.664-132.23 28.711-233.32 5.7422-179.23 89.789z"/>
    <path id="path43" fill="#d40000" d="m2338.3 1081.5c69.539 79.055 345.23-203.53 387.59-276.63-110.65 122.13-201.56 72.773-288.23 135.7-86.672 62.93-168.89 61.875-99.352 140.93z"/>
  </g>
  <metadata>
    <rdf:RDF>
      <cc:Work>
        <dc:format>image/svg+xml</dc:format>
        <dc:type rdf:resource="http://purl.org/dc/dcmitype/StillImage"/>
        <cc:license rdf:resource="http://creativecommons.org/licenses/publicdomain/"/>
        <dc:publisher>
          <cc:Agent rdf:about="http://openclipart.org/">
            <dc:title>Openclipart</dc:title>
          </cc:Agent>
        </dc:publisher>
        <dc:title>superhero penguin</dc:title>
        <dc:date>2013-05-23T02:09:43</dc:date>
        <dc:description>A penguin in an outfit reminds us of tux from Linux fame.</dc:description>
        <dc:source>https://openclipart.org/detail/178510/superhero-by-bartm-178510</dc:source>
        <dc:creator>
          <cc:Agent>
            <dc:title>BartM</dc:title>
          </cc:Agent>
        </dc:creator>
        <dc:subject>
          <rdf:Bag>
            <rdf:li>animal</rdf:li>
            <rdf:li>color</rdf:li>
            <rdf:li>linux</rdf:li>
            <rdf:li>penguin</rdf:li>
            <rdf:li>pet</rdf:li>
            <rdf:li>superhero</rdf:li>
            <rdf:li>tux</rdf:li>
          </rdf:Bag>
        </dc:subject>
      </cc:Work>
      <cc:License rdf:about="http://creativecommons.org/licenses/publicdomain/">
        <cc:permits rdf:resource="http://creativecommons.org/ns#Reproduction"/>
        <cc:permits rdf:resource="http://creativecommons.org/ns#Distribution"/>
        <cc:permits rdf:resource="http://creativecommons.org/ns#DerivativeWorks"/>
      </cc:License>
    </rdf:RDF>
  </metadata>
</svg>